<svg viewBox="0 0 88 100" fill="none" xmlns="http://www.w3.org/2000/svg">
  <path d="M88 0L79.7487 90.2771L43.9994 100L8.24955 90.2771L0 0H88ZM71.3732 18.3564H43.9673H16.0758L17.4097 29.2582H43.9673H45.459L43.9673 29.8854L18.3803 40.6499L19.2289 51.3061L43.9673 51.3871L57.2263 51.4296L56.3775 65.6382L43.9671 69.1676V69.1564L43.8653 69.185L31.88 66.1288L31.1527 57.3088H31.1129H19.9959H19.9567L21.4119 74.3357L43.9674 81.0733V81.0612L44.0081 81.0733L66.4428 74.4584L69.3529 40.6499H43.9674H43.9049L43.9674 40.6225L70.2829 29.2582L71.3732 18.3564Z" fill="#C2C2C2"/>
</svg>
