<svg viewBox="0 0 100 100" fill="none" xmlns="http://www.w3.org/2000/svg">
  <path d="M2.09057 55.0472C-0.696858 52.2597 -0.696858 47.7404 2.09057 44.9529L44.9529 2.09057C47.7404 -0.696858 52.2597 -0.696858 55.0472 2.09057L97.9094 44.9529C100.697 47.7404 100.697 52.2597 97.9094 55.0472L55.0472 97.9094C52.2597 100.697 47.7404 100.697 44.9529 97.9094L2.09057 55.0472Z" fill="#C2C2C2"/>
  <path d="M36.2461 10.9341L31.9058 15.2746L43.1161 26.485C42.6626 27.4579 42.4093 28.543 42.4093 29.6872C42.4093 32.9358 44.4504 35.7076 47.3201 36.7901V64.2137C44.4504 65.2962 42.4093 68.068 42.4093 71.3166C42.4093 75.508 45.8072 78.9059 49.9986 78.9059C54.1901 78.9059 57.5879 75.508 57.5879 71.3166C57.5879 68.3716 55.9104 65.818 53.4586 64.5601V36.8276L64.1747 47.5437C63.7433 48.4969 63.5033 49.5551 63.5033 50.6694C63.5033 54.8608 66.9011 58.2587 71.0926 58.2587C75.284 58.2587 78.6819 54.8608 78.6819 50.6694C78.6819 46.478 75.284 43.0801 71.0926 43.0801C70.2779 43.0801 69.4936 43.2083 68.7579 43.4458L57.249 31.9369C57.4693 31.2262 57.5879 30.4705 57.5879 29.6872C57.5879 25.4957 54.1901 22.0979 49.9986 22.0979C49.2154 22.0979 48.4601 22.2166 47.749 22.4369L36.2461 10.9341Z" fill="white"/>
</svg>
