<svg viewBox="0 0 100 100" fill="none" xmlns="http://www.w3.org/2000/svg">
  <rect x="10" y="10" width="80" height="80" stroke="#C2C2C2" stroke-width="20"/>
  <path d="M44.3541 42.4787L48.1018 54.2152H35.8699L39.5467 42.4787C40.3955 39.6506 41.1021 36.3277 41.8088 33.5703H41.9502C42.6574 36.3279 43.4348 39.5799 44.3541 42.4787ZM99.8047 16.6342V83.1707C99.8047 92.3195 92.3193 99.8049 83.1705 99.8049H16.6342C7.48535 99.8047 0 92.3193 0 83.1705V16.6342C0 7.48535 7.48535 0 16.6342 0H83.1707C92.3193 0 99.8047 7.48535 99.8047 16.6342ZM63.2316 74.294L47.7475 26.6422H36.6479L21.3766 74.294H30.3557L34.4566 60.79H49.5865L53.8994 74.294H63.2316ZM77.9336 39.8627H69.1664V74.294H77.9336V39.8627ZM78.4281 30.2477C78.3574 27.5609 76.5195 25.5109 73.5498 25.5109C70.651 25.5109 68.6717 27.5609 68.6717 30.2477C68.6717 32.8639 70.5803 34.9139 73.4791 34.9139C76.5193 34.9137 78.4281 32.8637 78.4281 30.2477Z" fill="#C2C2C2"/>
  <rect x="7" y="7" width="86" height="86" stroke="white" stroke-width="4"/>
</svg>
