<svg viewBox="0 0 100 100" fill="none" xmlns="http://www.w3.org/2000/svg">
  <path fill-rule="evenodd" clip-rule="evenodd" d="M76.64 92.1606C67.915 92.1606 62.275 88.001 59.525 82.561L67.175 78.1299C69.19 81.4199 71.805 83.8354 76.44 83.8354C80.33 83.8354 82.8149 81.8891 82.8149 79.2041C82.8149 75.1641 77.425 73.5856 73.62 71.9556C66.84 69.0706 62.3399 65.4455 62.3399 57.7905C62.3399 50.7455 67.71 45.376 76.105 45.376C82.075 45.376 86.375 47.4556 89.46 52.8906L82.1449 57.5903C80.5349 54.7053 78.79 53.5645 76.105 53.5645C73.35 53.5645 71.6051 55.3103 71.6051 57.5903C71.6051 60.4103 73.3501 61.5509 77.3801 63.2959C85.8251 66.9159 92.215 69.7598 92.215 79.0698C92.215 87.5298 85.57 92.1606 76.64 92.1606ZM55 77.9956C55 87.7306 49.0049 92.876 40.6799 92.876C33.1599 92.876 28.655 90 26.44 85H26.3651H26.33H26.31L33.9549 79.6558C35.4299 82.2708 36.76 84.126 39.98 84.126C43.07 84.126 45 82.5612 45 77.8662V45H55V77.9956ZM0 100H100V0H0V100Z" fill="#C2C2C2"/>
</svg>
