<svg viewBox="0 0 100 100" fill="none" xmlns="http://www.w3.org/2000/svg">
  <rect x="5" y="5" width="90" height="90" stroke="#C2C2C2" stroke-width="10"/>
  <path d="M41.0417 33.8333C39.5 33.2083 37.8333 32.9583 36.125 33C35.0417 33 34.0833 33 33.2917 33.0417C32.4583 33 31.875 33.0417 31.5833 33.0833V47.0833C32.1667 47.125 32.7083 47.1667 33.2083 47.1667H35.4167C37.0417 47.1667 38.6667 46.9167 40.2083 46.4167C41.5417 46.0417 42.7083 45.25 43.625 44.2083C44.5 43.1667 44.9167 41.75 44.9167 39.9167C44.9583 38.625 44.625 37.3333 43.9583 36.2083C43.25 35.125 42.25 34.2917 41.0417 33.8333ZM82.2917 0H17.7083C7.91667 0 0 7.91667 0 17.7083V79.7875C0 89.5792 7.91667 97.4958 17.7083 97.4958H82.2917C92.0833 97.4958 100 89.5792 100 79.7875V17.7083C100 7.91667 92.0833 0 82.2917 0ZM51.4958 48.5417C49.8333 50.875 47.5 52.625 44.7917 53.625C41.9583 54.6667 38.8333 55.0417 35.4167 55.0417C34.4167 55.0417 33.75 55.0417 33.3333 55C32.9167 54.9583 32.3333 54.9583 31.5417 54.9583V68.3292C31.5833 68.6208 31.375 68.875 31.0833 68.9167H23C22.6667 68.9167 22.5 68.7458 22.5 68.3708V25.5C22.5 25.2083 22.625 25.0417 22.9167 25.0417C23.625 25.0417 24.2917 25.0417 25.25 25C26.25 24.9583 27.2917 24.9583 28.4167 24.9167C29.5417 24.875 30.75 24.875 32.0417 24.8333C33.3333 24.7917 34.5833 24.7917 35.8333 24.7917C39.25 24.7917 42.0833 25.2083 44.4167 26.0833C46.5 26.7917 48.4167 27.9583 50 29.5C51.3333 30.8333 52.375 32.4583 53.0417 34.25C53.6625 36 53.9958 37.7917 53.9958 39.6667C54 43.25 53.1667 46.2083 51.4958 48.5417ZM81.0417 64.75C79.875 66.4167 78.2458 67.7042 76.375 68.4625C74.3333 69.3333 71.8333 69.7875 68.8292 69.7875C66.9167 69.7875 65.0375 69.625 63.1667 69.25C61.7083 68.9958 60.25 68.5417 58.9167 67.9167C58.625 67.7542 58.4125 67.4625 58.4542 67.1292V59.8792C58.4542 59.7583 58.5 59.5875 58.625 59.5042C58.7458 59.4208 58.875 59.4625 59 59.5458C60.625 60.5042 62.3333 61.175 64.1667 61.5875C65.7458 62.0042 67.4125 62.2125 69.0833 62.2125C70.6667 62.2125 71.7917 62 72.5417 61.625C73.2083 61.3333 73.6667 60.625 73.6667 59.875C73.6667 59.2875 73.3333 58.75 72.6667 58.2083C72 57.6708 70.6292 57.0458 68.5875 56.2458C66.4625 55.4958 64.5083 54.4958 62.6708 53.25C61.3792 52.3292 60.3 51.125 59.5 49.7083C58.8375 48.375 58.5042 46.9167 58.5458 45.4542C58.5458 43.6625 59.0458 41.9542 59.9667 40.4125C61.0083 38.7458 62.5458 37.4125 64.3375 36.5792C66.2917 35.5833 68.75 35.125 71.7083 35.125C73.4167 35.125 75.1667 35.25 76.875 35.5C78.125 35.6667 79.3333 36 80.4583 36.4583C80.6208 36.5 80.7917 36.6667 80.875 36.8333C80.9167 37 80.9583 37.1667 80.9583 37.3333V44.125C80.9583 44.2917 80.875 44.4583 80.75 44.5417C80.375 44.625 80.1667 44.625 80 44.5417C78.75 43.875 77.4167 43.4167 76 43.125C74.4583 42.7917 72.9167 42.5833 71.3333 42.5833C70.5 42.5417 69.625 42.6667 68.8292 42.875C68.2917 43 67.8292 43.2917 67.5375 43.7083C67.3292 44.0417 67.2042 44.4583 67.2042 44.8333C67.2042 45.2083 67.3708 45.5833 67.625 45.9167C68 46.375 68.4958 46.75 69.0417 47.0417C69.9958 47.5417 71 48 71.9958 48.4167C74.25 49.1667 76.4167 50.2083 78.4167 51.4583C79.7917 52.3292 80.9167 53.5 81.7042 54.9167C82.3708 56.2417 82.7042 57.7083 82.6625 59.2042C82.7083 61.1667 82.125 63.1208 81.0417 64.75Z" fill="#C2C2C2"/>
  <rect x="7" y="7" width="86" height="86" stroke="white" stroke-width="4"/>
</svg>
