<svg viewBox="0 0 97 100" fill="none" xmlns="http://www.w3.org/2000/svg">
<path d="M69.6892 0C65.7995 0.0343771 61.9442 0.587537 58.2013 1.6751L57.942 1.75948C55.5957 1.35008 53.2057 1.12507 50.8312 1.07507C45.9168 0.990686 41.699 2.17826 38.2998 4.16588C34.9475 3.01269 27.9992 0.990686 20.6759 1.40009C15.5865 1.6751 10.0191 3.22207 5.88258 7.58485C1.78356 11.932 -0.394046 18.6699 0.058971 27.8517C0.187065 30.3738 0.905644 34.4896 2.10848 39.8431C3.2957 45.1841 4.97342 51.4344 7.07292 57.1473C9.17242 62.8445 11.4625 67.9698 15.046 71.4513C16.8331 73.192 19.3075 74.6765 22.2193 74.5484C24.2563 74.464 26.0934 73.5702 27.6899 72.2514C28.4678 73.2764 29.302 73.714 30.0487 74.1234C31.011 74.6453 31.9201 75.0015 32.8824 75.2328C34.607 75.6703 37.5531 76.2422 41.0023 75.6547C42.1739 75.4578 43.4111 75.0703 44.6483 74.5328C44.6983 75.8985 44.7483 77.2485 44.7952 78.6174C44.9732 82.9301 45.092 86.9179 46.3729 90.4181C46.5854 90.99 47.1571 93.9183 49.4003 96.5216C51.6623 99.1249 56.0518 100.737 61.0819 99.6624C64.6154 98.9124 69.1206 97.5467 72.1168 93.2839C75.0786 89.0837 76.4126 83.0458 76.6751 73.2452C76.7375 72.7076 76.8219 72.2701 76.9 71.8451L77.5998 71.9107H77.6842C81.4583 72.0732 85.5604 71.5357 88.994 69.9387C92.0183 68.5386 94.3146 67.1229 95.9892 64.6009C96.3985 63.979 96.8671 63.2164 96.9858 61.9132C97.1139 60.6288 96.3641 58.5911 95.1269 57.6505C92.6556 55.7628 91.0935 56.4785 89.4158 56.8379C87.7755 57.1973 86.0947 57.3879 84.4201 57.4379C89.2346 49.3343 92.6837 40.7088 94.6551 33.0864C95.8267 28.5768 96.4797 24.4265 96.5266 20.7982C96.5922 17.1698 96.286 13.9634 94.1178 11.1819C87.3163 2.50641 77.7623 0.0937558 70.3766 0.015626C70.1485 0.015626 69.9235 0.015626 69.6923 0.015626L69.6892 0ZM69.4924 2.67204C76.4751 2.60641 85.4042 4.55966 91.8152 12.7602C93.2648 14.6009 93.6897 17.2854 93.6397 20.6075C93.5898 23.9296 92.9743 27.883 91.8495 32.2301C89.6876 40.665 85.5667 50.4594 79.7931 59.2693C79.9899 59.4162 80.2148 59.5443 80.4429 59.6287C81.6457 60.1319 84.3951 60.5538 89.8938 59.4318C91.2778 59.1349 92.2901 58.9443 93.3461 59.7412C93.8678 60.1787 94.1428 60.8319 94.1084 61.5163C94.0459 62.0195 93.8678 62.507 93.5554 62.9164C92.4963 64.5071 90.403 66.026 87.7162 67.2792C85.3417 68.3824 81.9207 68.9543 78.9151 68.9887C77.3874 69.0043 75.9877 68.8886 74.7943 68.5136L74.7318 68.5011C74.2725 72.9108 73.2196 81.6363 72.5323 85.6053C71.9824 88.8086 71.0201 91.3682 69.1831 93.2714C67.3429 95.1934 64.756 96.331 61.2569 97.081C56.9298 98.0092 53.7868 97.0154 51.756 95.3059C49.7252 93.5964 48.7942 91.3182 48.2412 89.9337C47.8538 88.9743 47.657 87.7367 47.4633 86.0741C47.2664 84.4146 47.1384 82.3957 47.0384 80.1018C46.9103 76.6016 46.8603 73.1014 46.9103 69.5856C45.1076 71.2482 42.8612 72.3357 40.4493 72.7608C37.5719 73.2483 35.0162 72.7608 33.4885 72.3857C32.7387 72.1889 32.0045 71.9138 31.3234 71.5388C30.6079 71.1638 29.9393 70.7419 29.4863 69.8918C29.2239 69.4043 29.1458 68.8386 29.2582 68.3011C29.3863 67.7479 29.7113 67.276 30.1549 66.9166C30.9828 66.2447 32.0763 65.876 33.7166 65.5322C36.7127 64.9103 37.7687 64.4915 38.4029 63.9821C38.9403 63.5602 39.562 62.682 40.6305 61.3944C40.6305 61.3476 40.6305 61.2819 40.6149 61.2319C38.681 61.1694 36.7908 60.6663 35.0819 59.735C34.4664 60.385 31.2578 63.7727 27.3712 68.4605C25.7435 70.4106 23.9376 71.5357 22.0194 71.6201C20.1167 71.6982 18.3858 70.7419 16.9237 69.323C13.9963 66.4729 11.65 61.5726 9.61606 56.0378C7.58217 50.5031 5.93882 44.3371 4.7516 39.0962C3.58 33.8365 2.88017 29.605 2.7802 27.5705C2.3428 18.8949 4.37669 13.0539 7.85711 9.35683C11.3375 5.65973 16.1083 4.27839 20.7634 4.00337C29.1114 3.53147 37.0501 6.44415 38.6466 7.06294C41.7365 4.96281 45.7231 3.66273 50.7031 3.74086C53.0651 3.77523 55.4051 4.0815 57.7015 4.65341L57.7858 4.60341C58.7949 4.26276 59.8197 3.95337 60.8601 3.72836C63.6938 3.05644 66.5868 2.71579 69.483 2.66892L69.4924 2.67204ZM70.1266 5.45346H69.5111C67.1367 5.48159 64.7404 5.76286 62.416 6.26601C67.6053 8.56303 71.5263 12.0914 74.2912 15.6416C76.2127 18.0824 77.7904 20.7669 78.9932 23.6327C79.4681 24.7422 79.7774 25.6672 79.9399 26.3829C80.0368 26.7423 80.0867 27.0486 80.118 27.3579C80.118 27.5205 80.1336 27.6861 80.0524 27.9611C80.0524 27.9767 80.0367 28.0111 80.0367 28.0267C80.1711 31.6738 79.2588 34.1427 79.1401 37.6273C79.062 40.1525 79.7118 43.1152 79.8743 46.3529C80.0211 49.3937 79.6493 52.7314 77.6779 56.0191C77.8404 56.216 77.9872 56.4097 78.1497 56.6223C83.3735 48.3843 87.1476 39.2868 89.1502 31.5207C90.2249 27.3361 90.7904 23.5452 90.8404 20.5544C90.8904 17.5573 90.3374 15.376 89.6188 14.4665C84.0202 7.3192 76.4564 5.49409 70.1235 5.45034L70.1266 5.45346ZM50.1595 6.5254C45.2482 6.54103 41.7146 8.0255 39.034 10.2538C36.2628 12.5664 34.4101 15.7072 33.2073 18.9449C31.7577 22.7702 31.2546 26.4798 31.0578 29.0049L31.1234 28.9705C32.6074 28.1424 34.557 27.2954 36.6565 26.8235C38.7404 26.3329 41.0023 26.186 43.0331 26.986C45.0857 27.7642 46.7603 29.6362 47.3789 32.452C50.3126 46.0279 46.4698 51.075 45.0545 54.8815C44.5171 56.266 44.0453 57.6661 43.6704 59.0974C43.8485 59.063 44.0297 59.013 44.2078 58.9974C45.2169 58.9193 45.9949 59.2443 46.4541 59.4381C47.8882 60.0381 48.8629 61.2757 49.4003 62.6914C49.5284 63.0664 49.6253 63.4539 49.6909 63.879C49.7409 64.0415 49.7752 64.2196 49.7752 64.4009C49.6128 69.5918 49.6253 74.7859 49.8221 79.9768C49.9221 82.2238 50.0689 84.1927 50.247 85.7553C50.4251 87.3023 50.6688 88.4899 50.8344 88.8961C51.3686 90.2306 52.1497 91.9713 53.5681 93.1589C54.9677 94.3496 56.9829 95.1309 60.6789 94.3496C63.8812 93.6496 65.8526 92.7026 67.1679 91.3369C68.4895 89.9525 69.2674 88.0492 69.7704 85.1365C70.5359 80.7581 72.048 68.0605 72.2292 65.6853C72.1511 63.8758 72.4073 62.4945 72.9947 61.4351C73.5789 60.36 74.4912 59.6943 75.291 59.3349C75.6784 59.1568 76.0533 59.0443 76.3626 58.9443C76.0377 58.4911 75.6972 58.0349 75.3535 57.5942C74.2163 56.2097 73.2696 54.6659 72.5698 53.022C72.2449 52.3345 71.8856 51.6501 71.495 51C70.9452 50.0094 70.2453 48.753 69.5111 47.3373C68.0459 44.5371 66.4525 41.1213 65.6214 37.7992C64.7935 34.4771 64.681 31.0457 66.7962 28.6362C68.6676 26.486 71.9699 25.5953 76.8969 26.0985C76.75 25.6578 76.6719 25.2828 76.4251 24.714C75.3035 22.0764 73.8382 19.6012 72.0793 17.3542C67.8959 12.0007 61.11 6.69104 50.65 6.5129L50.1595 6.5254ZM22.5005 6.73792C21.9787 6.73792 21.4414 6.75354 20.9227 6.78792C16.7081 7.03481 12.7372 8.25051 9.88787 11.2632C7.04168 14.2915 5.17338 19.2231 5.5764 27.4111C5.66076 28.9737 6.32622 33.3021 7.47907 38.4618C8.63817 43.6246 10.2784 49.6968 12.2498 55.0659C14.215 60.4194 16.5956 65.0915 18.8732 67.3042C20.0105 68.3949 21.0008 68.8511 21.8975 68.8199C22.7942 68.7699 23.8845 68.248 25.2186 66.6541C27.643 63.7258 30.1518 60.8913 32.7543 58.1255C29.0083 54.8534 27.1712 49.9093 27.9054 44.9903C28.3272 41.9151 28.3928 39.0305 28.3272 36.7523C28.2804 34.5396 28.1304 33.077 28.1304 32.1489C28.1304 32.1145 28.1304 32.0989 28.1304 32.0645V32.0489L28.1148 32.0207C28.1148 27.2173 28.9646 22.467 30.5892 17.9574C31.7608 14.8447 33.4885 11.707 36.0879 9.14744C33.5354 8.30052 28.9927 7.03481 24.0814 6.78792C23.5596 6.75354 23.0191 6.73792 22.5005 6.73792ZM74.1444 28.7424C71.317 28.7924 69.7361 29.5268 68.8925 30.4675C67.7178 31.8207 67.6053 34.1959 68.3395 37.1273C69.0675 40.0556 70.5859 43.3277 72.0012 46.0497C72.701 47.4154 73.3852 48.6374 73.9351 49.6281C74.5068 50.6375 74.913 51.3376 75.1567 51.9563C75.3847 52.5095 75.6472 52.997 75.9065 53.4533C76.9968 51.1407 77.1937 48.878 77.0781 46.5029C76.9312 43.5746 76.2502 40.5775 76.3626 37.5523C76.4782 34.0021 77.1781 31.6895 77.2281 28.9549C76.2158 28.8268 75.1754 28.7424 74.1507 28.7424H74.1444ZM39.8463 29.2362C38.9841 29.2362 38.1218 29.3487 37.2751 29.5456C35.5974 29.955 33.9884 30.5706 32.4731 31.4176C31.9701 31.6926 31.4827 32.0051 31.0266 32.3645L30.9266 32.4426C30.961 33.0645 31.0734 34.5271 31.1234 36.7085C31.1734 39.0837 31.1234 42.1089 30.6704 45.3841C29.6613 52.5126 34.835 58.4067 40.9055 58.4224C41.2648 56.9567 41.8459 55.4722 42.4332 53.9127C44.1234 49.3531 47.4445 46.0341 44.6452 33.0458C44.1922 30.93 43.2799 30.0675 42.024 29.58C41.3241 29.3331 40.5962 29.2206 39.8463 29.2393V29.2362ZM72.8291 30.08H73.0415C73.3009 30.0956 73.5633 30.1144 73.7882 30.1769C74.0007 30.2269 74.1975 30.2925 74.36 30.405C74.5224 30.5019 74.6349 30.6644 74.6693 30.8582V30.8925C74.6693 31.0894 74.6193 31.2832 74.5224 31.4645C74.3943 31.6895 74.2475 31.902 74.0694 32.0801C73.6445 32.552 73.0728 32.8645 72.4573 32.9583C71.8543 33.0427 71.2545 32.8802 70.7483 32.5364C70.5515 32.3864 70.3578 32.2239 70.211 32.0457C70.0641 31.8989 69.9829 31.7051 69.9485 31.5082C69.936 31.3176 69.9829 31.1207 70.111 30.9738C70.261 30.8238 70.4234 30.6957 70.6015 30.5988C71.0045 30.3706 71.5419 30.2081 72.1636 30.1237C72.3886 30.0956 72.6166 30.0769 72.8291 30.0612V30.08ZM40.2494 30.78C40.4618 30.78 40.7086 30.7957 40.9367 30.8269C41.5866 30.9269 42.1395 31.0894 42.5769 31.3488C42.7894 31.4488 42.9862 31.6113 43.1299 31.7895C43.2924 31.9864 43.3705 32.227 43.358 32.4895C43.308 32.7302 43.208 32.9614 43.0456 33.1396C42.8675 33.3521 42.6738 33.5302 42.4457 33.6771C41.9084 34.0677 41.2429 34.2302 40.5743 34.149C39.9026 34.0365 39.2871 33.7115 38.8341 33.2083C38.6373 32.9958 38.4748 32.7677 38.3436 32.5239C38.1967 32.2958 38.1343 32.0364 38.1655 31.7738C38.2311 31.3363 38.606 31.0894 38.9653 30.9613C39.3746 30.8269 39.812 30.7832 40.2494 30.7988V30.78ZM77.9872 61.3788H77.9716C77.3718 61.6069 76.8688 61.6913 76.4439 61.8882C76.0065 62.0507 75.6597 62.3757 75.4535 62.7789C75.1754 63.2539 74.9661 64.1009 75.0286 65.5447C75.2066 65.6791 75.4191 65.7728 75.6503 65.8416C76.3501 66.0541 77.553 66.201 78.887 66.1822C81.5395 66.1479 84.8106 65.5322 86.5508 64.7165C87.9661 64.0665 89.3002 63.1883 90.4718 62.1632C84.6638 63.3508 81.3958 63.0414 79.3744 62.2132C78.887 62.0007 78.4121 61.7226 77.9872 61.3788ZM44.5327 61.7695H44.4484C44.2234 61.7851 43.911 61.8695 43.2768 62.5539C41.8271 64.179 41.3241 65.204 40.1369 66.151C38.9341 67.1104 37.3876 67.6167 34.2789 68.2511C33.3042 68.448 32.7324 68.673 32.3575 68.8511C32.47 68.9511 32.47 68.9855 32.6481 69.0637C33.1073 69.3262 33.6884 69.5387 34.1633 69.6668C35.4974 69.9918 37.675 70.3825 39.9713 69.9918C42.2489 69.6012 44.6233 68.5074 46.6603 65.6634C47.0196 65.1759 47.0477 64.4415 46.7572 63.6602C46.4666 62.8977 45.8293 62.2132 45.3919 62.0351C45.1138 61.9007 44.8202 61.8226 44.5296 61.7726L44.5327 61.7695Z" fill="#C2C2C2"/>
</svg>
