<svg width="97" height="75" viewBox="0 0 97 75" fill="none" xmlns="http://www.w3.org/2000/svg">
<path d="M82.101 6.28833C75.8242 3.37423 69.1391 1.22699 62.0967 0C61.2292 1.53374 60.2086 3.62985 59.5452 5.31696C52.0946 4.19222 44.695 4.19222 37.3976 5.31696C36.6832 3.62985 35.6625 1.53374 34.795 0C27.7527 1.22699 21.0676 3.37423 14.7907 6.28833C2.13494 25.4089 -1.28416 44.0696 0.399876 62.4233C8.82005 68.7117 16.934 72.4949 24.946 75C26.9362 72.2904 28.6712 69.3763 30.2022 66.3599C27.2934 65.2863 24.5377 63.906 21.9351 62.3211C22.6495 61.8098 23.313 61.2475 23.9764 60.7362C39.9491 68.2004 57.2488 68.2004 73.0174 60.7362C73.6809 61.2986 74.3443 61.8098 75.0587 62.3211C72.4561 63.906 69.6494 65.2352 66.7916 66.3599C68.3226 69.3763 70.0576 72.2904 72.0479 75C80.0598 72.4949 88.2248 68.7117 96.5939 62.4233C98.5842 41.1044 93.1748 22.6482 82.2031 6.28833H82.101ZM32.3455 51.1759C27.5486 51.1759 23.6191 46.7281 23.6191 41.2577C23.6191 35.7874 27.4465 31.3396 32.3455 31.3396C37.2445 31.3396 41.1229 35.7874 41.0718 41.2577C41.0718 46.6769 37.2445 51.1759 32.3455 51.1759ZM64.5462 51.1759C59.7493 51.1759 55.8199 46.7281 55.8199 41.2577C55.8199 35.7874 59.6472 31.3396 64.5462 31.3396C69.4453 31.3396 73.3236 35.7874 73.2726 41.2577C73.2726 46.6769 69.4453 51.1759 64.5462 51.1759Z" fill="white"/>
</svg>
