<svg width="87" height="73" viewBox="0 0 87 73" fill="none" xmlns="http://www.w3.org/2000/svg">
<path fill-rule="evenodd" clip-rule="evenodd" d="M77.9842 0.510236C82.6929 -1.43704 87.7409 2.47362 86.9095 7.42476L77.0891 65.905C76.1421 71.5436 69.8367 74.7791 64.5697 71.9691C60.1623 69.6179 53.6231 65.999 47.7298 62.2168C44.787 60.3281 35.7761 54.2721 36.8837 49.9611C37.8307 46.275 52.9791 32.4256 61.6356 24.1892C65.0359 20.9538 63.4872 19.0848 59.4715 22.0637C49.5096 29.4532 33.516 40.6883 28.227 43.8502C23.5606 46.6398 21.1242 47.1159 18.218 46.6398C12.911 45.7713 7.99076 44.4262 3.9738 42.7909C-1.45541 40.5803 -1.19096 33.2524 3.97012 31.1184L77.9842 0.510236Z" fill="white"/>
</svg>
