<svg viewBox="0 0 108 72" fill="none" xmlns="http://www.w3.org/2000/svg">
<path d="M99.1074 6.7002C98.7164 6.69522 98.3411 6.91342 98.1367 7.32031C97.906 7.77715 97.8506 8.26295 97.8506 8.72461C97.8506 8.95539 97.8647 9.18676 97.8789 9.4082C97.8933 9.63267 97.9077 9.84601 97.9121 10.0547V10.0586C97.9482 11.1268 97.9754 12.288 98.3184 13.3594L98.3193 13.3613C98.4495 13.7571 98.7842 13.9496 99.124 13.9268C99.4473 13.9049 99.7575 13.6901 99.8799 13.3389L99.8809 13.3359C100.244 12.2599 100.243 11.0527 100.278 10.0029V10.002C100.285 9.79686 100.301 9.58882 100.316 9.36914C100.331 9.15242 100.345 8.92674 100.345 8.70117C100.345 8.25009 100.29 7.77622 100.064 7.3291H100.063C99.865 6.92984 99.4959 6.70514 99.1074 6.7002Z" fill="#FFC5E3" stroke="#FFC5E3" stroke-width="0.6"/>
<path d="M99.3215 17.6333C99.0781 17.6235 98.8206 17.6858 98.6125 17.8413C98.3977 18.002 98.2536 18.2498 98.2317 18.564C98.1748 19.3884 98.0494 20.41 98.0042 21.3716C97.9581 22.3492 97.9878 23.3497 98.2532 24.2251V24.2271C98.3995 24.6989 98.8523 24.9453 99.262 24.9761C99.6791 25.0073 100.165 24.8196 100.328 24.3022C100.608 23.4179 100.65 22.4153 100.611 21.4341C100.572 20.4611 100.449 19.4524 100.387 18.6089L100.373 18.4927C100.274 17.9313 99.7691 17.6513 99.3215 17.6333Z" fill="#FFC5E3" stroke="#FFC5E3" stroke-width="0.6"/>
<path d="M104.337 15.2285C103.523 15.2192 102.757 15.2352 101.929 15.5312H101.93C101.74 15.5986 101.601 15.7617 101.558 15.9443C101.536 16.0396 101.538 16.1499 101.582 16.2568C101.627 16.3661 101.708 16.4532 101.812 16.5107L101.813 16.5088C102.65 17.0131 103.473 17.2156 104.399 17.3828L104.4 17.3818C104.718 17.4412 105.084 17.5322 105.423 17.5322C105.791 17.5322 106.155 17.4306 106.497 17.1133L106.496 17.1123C106.641 16.9786 106.732 16.7933 106.766 16.6084C106.8 16.4221 106.781 16.2043 106.666 16.0166L106.663 16.0107H106.662C106.374 15.5648 105.968 15.3713 105.548 15.29C105.15 15.213 104.703 15.2328 104.337 15.2285Z" fill="#FFC5E3" stroke="#FFC5E3" stroke-width="0.6"/>
<path d="M95.8862 14.7959L95.8853 14.7949C95.5704 14.8001 95.2686 14.8615 94.9937 14.9199C94.7104 14.9802 94.4562 15.0369 94.1958 15.0537L94.1968 15.0547C93.5996 15.0891 92.9863 15.0026 92.3901 14.8428V14.8418C91.5676 14.6186 90.9623 15.1606 90.771 15.7588C90.6747 16.0601 90.6705 16.4027 90.8042 16.707C90.9246 16.9809 91.1479 17.2037 91.4692 17.3291L91.6157 17.3779C92.3796 17.5798 93.4044 17.6948 94.3735 17.5752C95.3352 17.4565 96.3003 17.0975 96.8628 16.292C97.1027 15.9542 97.0744 15.5892 96.9048 15.3105C96.7916 15.1247 96.6156 14.9768 96.4185 14.8877V14.7949H96.0474C95.9946 14.7892 95.9404 14.7898 95.8862 14.7959Z" fill="#FFC5E3" stroke="#FFC5E3" stroke-width="0.6"/>
<path d="M9.32531 40.6015C9.1028 40.4707 8.84575 40.4414 8.61027 40.484C8.14696 40.5679 7.68666 40.9497 7.66241 41.548C7.63843 42.1062 7.65166 42.6605 7.67158 43.2058C7.69161 43.7545 7.71743 44.291 7.71979 44.8318C7.71972 45.043 7.70612 45.2646 7.69401 45.5034C7.68208 45.7384 7.67131 45.9871 7.67844 46.2342C7.69266 46.7265 7.77861 47.25 8.10211 47.697L8.29851 47.9671L8.35327 47.9176C8.42266 47.9649 8.49999 48.0035 8.58562 48.0255C8.81427 48.0843 9.05746 48.0237 9.25632 47.8322L9.25839 47.8303C9.666 47.4295 9.84341 46.9103 9.92745 46.4003C10.0103 45.8972 10.0089 45.3551 10.0267 44.9114L10.0399 44.4533C10.0637 43.3887 10.0221 42.3396 9.78899 41.2674L9.78812 41.2654C9.72002 40.9625 9.55353 40.7357 9.32531 40.6015Z" fill="#CEFB96" stroke="#CEFB96" stroke-width="0.6"/>
<path d="M8.27026 30.8198C8.03809 30.6958 7.77411 30.6739 7.53394 30.7251C7.05943 30.8264 6.60139 31.2354 6.60718 31.855V31.856C6.6246 33.4519 6.81686 35.099 6.94507 36.6665C6.95664 36.857 7.05079 37.0211 7.15503 37.1372C7.25885 37.2528 7.40024 37.3506 7.55444 37.397L7.55347 37.3979C7.56615 37.4022 7.57887 37.4064 7.59155 37.4106C7.60446 37.415 7.61771 37.42 7.63062 37.4243L7.64526 37.4292L7.66089 37.4321C7.78283 37.4596 7.89493 37.4465 7.98511 37.4292C7.99303 37.4285 8.00071 37.4262 8.00854 37.4253C8.01407 37.4241 8.01982 37.4245 8.02515 37.4233V37.4224C8.19558 37.3974 8.34414 37.3122 8.45288 37.2134C8.57065 37.1063 8.67197 36.9603 8.71558 36.7983L8.71655 36.7925C9.12979 35.1178 9.25933 33.1828 8.77515 31.4741C8.68986 31.1691 8.50784 30.9468 8.27026 30.8198Z" fill="#CEFB96" stroke="#CEFB96" stroke-width="0.6"/>
<path d="M11.488 37.627C11.0225 37.6534 10.5167 37.7633 10.1345 38.1318H10.1335C10.1325 38.1328 10.1316 38.1338 10.1306 38.1348C10.1279 38.1374 10.1245 38.1399 10.1218 38.1426H10.1228C10.0441 38.217 9.99113 38.3147 9.96655 38.4102C9.94159 38.5072 9.93215 38.6565 10.0212 38.792L10.0251 38.7969C10.3272 39.237 10.777 39.4532 11.2185 39.5771C11.6471 39.6974 12.1341 39.7444 12.491 39.8047C12.6889 39.8385 12.8963 39.8855 13.1248 39.9326C13.3489 39.9788 13.5878 40.0249 13.8279 40.0527C14.3039 40.1079 14.8253 40.0966 15.2898 39.8428V39.8418C15.9273 39.503 16.066 38.6518 15.4636 38.166H15.4626C15.0644 37.8464 14.5826 37.7323 14.1238 37.6895C13.6786 37.6479 13.1828 37.6711 12.8064 37.6631L12.1882 37.6328C11.9587 37.6216 11.7156 37.6141 11.488 37.627Z" fill="#CEFB96" stroke="#CEFB96" stroke-width="0.6"/>
<path d="M6.92255 39.6312C6.7462 39.2244 6.3286 38.8452 5.81719 38.8561C5.24069 38.7936 4.62548 38.8609 4.12061 38.869C3.77729 38.8714 3.44218 38.8429 3.07912 38.8222C2.8122 38.807 2.53536 38.7967 2.25235 38.812L1.96752 38.8366L1.86304 38.8532C1.35365 38.9609 1.00267 39.3779 0.893639 39.819C0.773378 40.3059 0.938259 40.8756 1.52867 41.1458C2.2313 41.4685 3.14331 41.6165 4.03403 41.5933C4.92397 41.57 5.83061 41.3746 6.51449 40.9727L6.51467 40.9717C6.77577 40.819 6.93658 40.5966 6.99732 40.3438C7.05629 40.0979 7.01597 39.8468 6.92255 39.6312Z" fill="#CEFB96" stroke="#CEFB96" stroke-width="0.6"/>
<path d="M29.0752 47.6997C28.8592 47.7068 28.6345 47.777 28.457 47.937C28.2766 48.0998 28.1711 48.3324 28.1553 48.6128L28.1455 48.8286C28.1327 49.3318 28.1898 49.8282 28.2559 50.3081C28.3326 50.8651 28.4198 51.3916 28.4463 51.9233C28.4506 52.0191 28.4532 52.1149 28.4541 52.2114V53.106C28.4623 53.51 28.4983 53.931 28.6328 54.3569L28.6318 54.3579C28.717 54.6359 28.9583 54.7626 29.1748 54.7788C29.381 54.7942 29.6145 54.7165 29.7627 54.5317V54.5327C30.3747 53.7776 30.518 52.736 30.5742 51.8491L30.5938 51.479C30.6384 50.52 30.6954 49.2982 30.1865 48.3276L30.0928 48.1792C29.8493 47.8555 29.4418 47.6879 29.0752 47.6997Z" fill="#FFC5E3" stroke="#FFC5E3" stroke-width="0.6"/>
<path d="M29.5737 58.1475C29.4851 58.1393 29.3723 58.1544 29.269 58.2266L29.2681 58.2256C29.2669 58.2264 29.2663 58.2277 29.2651 58.2285L29.2622 58.2295L29.2632 58.2305C28.7353 58.5962 28.564 59.1764 28.5132 59.7227C28.4637 60.2548 28.5237 60.8676 28.5278 61.2803V61.2812C28.5322 61.5856 28.5193 61.9077 28.5073 62.2471C28.4955 62.5827 28.4852 62.934 28.4976 63.2812C28.5222 63.972 28.6381 64.6862 29.0435 65.29C29.2362 65.579 29.5716 65.6697 29.8501 65.6465C30.1276 65.6233 30.4374 65.4818 30.5942 65.1943V65.1934C30.9289 64.5868 30.9821 63.9009 30.9517 63.2461C30.9363 62.9167 30.8991 62.5849 30.8618 62.2686C30.8241 61.9488 30.786 61.6466 30.7661 61.3584V61.3574C30.7507 61.1391 30.7487 60.8907 30.7397 60.6055C30.731 60.3277 30.7157 60.026 30.6714 59.7334C30.5848 59.1611 30.3753 58.5382 29.7915 58.2188C29.7278 58.1809 29.6526 58.1547 29.5737 58.1475Z" fill="#FFC5E3" stroke="#FFC5E3" stroke-width="0.6"/>
<path d="M35.637 55.79C35.3841 55.6139 35.0559 55.5473 34.6907 55.6318L34.6917 55.6328C34.0991 55.7693 33.5163 55.8679 32.9104 55.9795L32.9084 55.9805C32.5173 56.0547 32.0448 56.0738 31.678 56.5742L31.6311 56.6455C31.59 56.7197 31.565 56.8029 31.5637 56.8926C31.5621 57.01 31.6019 57.1111 31.6516 57.1904C31.7449 57.3392 31.8977 57.4485 32.0256 57.5234C32.2821 57.6736 32.5956 57.7741 32.7229 57.8018L32.7219 57.8027C33.4966 57.9891 34.3487 57.9873 35.1282 57.8525H35.1292C35.5039 57.7864 35.784 57.5979 35.9504 57.3359C36.1135 57.0791 36.1525 56.7751 36.0959 56.5C36.0394 56.2252 35.8843 55.9623 35.637 55.79Z" fill="#FFC5E3" stroke="#FFC5E3" stroke-width="0.6"/>
<path d="M23.9954 56.2524C23.6135 56.2149 23.2911 56.325 23.0608 56.5376C22.8357 56.7455 22.7196 57.032 22.7024 57.3149C22.6852 57.5978 22.7657 57.8958 22.9592 58.1304C23.1573 58.3703 23.4575 58.5248 23.8352 58.5396H23.8381C24.4891 58.5592 25.1123 58.4407 25.7053 58.2905L25.7083 58.2896C25.9227 58.2331 26.2088 58.1654 26.4553 58.0386C26.7141 57.9054 26.9588 57.6937 27.0667 57.3403L27.0657 57.3394C27.1266 57.1399 27.0848 56.9541 26.9719 56.8101C26.8718 56.6825 26.7303 56.6041 26.6116 56.5552C26.3743 56.4573 26.0981 56.4244 25.9583 56.4185C25.3012 56.382 24.6616 56.3181 23.9954 56.2534V56.2524Z" fill="#FFC5E3" stroke="#FFC5E3" stroke-width="0.6"/>
<path d="M54.7225 0.582288C54.4478 0.604452 54.1174 0.806224 54.1146 1.20951L54.1136 1.2104C54.0687 7.21411 54.1905 12.863 52.8075 18.7037C52.0462 21.9317 51.0308 25.2375 49.1002 27.9124C47.4229 30.2389 45.2858 31.4829 42.7002 32.6507C42.6888 32.644 42.6767 32.6376 42.6646 32.631L42.5801 32.5875C42.3798 32.4982 42.1729 32.4956 41.9881 32.5652C41.786 32.6416 41.6331 32.796 41.5409 32.969C41.4484 33.1425 41.4058 33.3557 41.449 33.5659C41.4939 33.7836 41.6281 33.981 41.8535 34.1092C46.9468 37.0043 50.571 41.6937 52.4756 47.1902C54.4539 52.9011 54.196 58.5547 54.1382 64.5621L54.1392 64.5612C54.138 64.6294 54.1575 64.7169 54.228 64.7893C54.3016 64.8647 54.392 64.8844 54.4553 64.8842C54.5676 64.8837 54.6949 64.8204 54.7519 64.6881L54.7615 64.6664L54.7673 64.6443C54.771 64.6297 54.7753 64.614 54.7789 64.5992C54.7954 64.573 54.8065 64.5443 54.8144 64.5141L54.8163 64.5152C55.7558 60.986 56.2633 57.3809 56.9149 53.8555C57.5684 50.3196 58.3701 46.8451 59.8971 43.5174L59.8972 43.5165C61.1848 40.7063 62.946 38.1161 65.2236 36.0331C67.7975 33.6791 70.4837 32.8591 73.7677 31.7067L73.7676 31.7076C74.1406 31.5814 74.2428 31.2094 74.2021 30.9391C74.1611 30.6675 73.9515 30.3419 73.5526 30.3376L73.5506 30.3375C72.8257 30.3276 72.1014 30.4004 71.3971 30.5443C68.5318 30.2559 66.0369 28.654 63.967 26.4782C61.8884 24.2932 60.2586 21.5515 59.1367 19.06C57.0018 14.312 56.3711 9.54179 55.9976 4.47271L55.85 2.28125C55.8388 2.03837 55.6952 1.86993 55.5307 1.77367C55.4989 1.55659 55.4675 1.32946 55.4284 1.10726C55.359 0.708052 54.9992 0.560169 54.7225 0.582288ZM54.6562 64.7073C54.6388 64.7172 54.6249 64.7237 54.6174 64.7266C54.6139 64.7279 54.6096 64.7294 54.6063 64.7305C54.6081 64.73 54.6286 64.7211 54.6562 64.7073ZM55.4579 13.3937C56.2176 16.2934 57.3361 19.1045 58.6681 21.6378L58.9879 22.2336C59.9808 24.049 61.519 26.205 63.3907 27.9961C64.9998 29.5359 66.8765 30.824 68.8828 31.376C64.7399 33.2243 61.26 37.2665 59.301 40.8515L59.301 40.8524C57.4476 44.2462 56.2097 48.1303 55.4168 52.1121C54.2396 44.6228 50.3062 37.5701 43.8726 33.3753C46.0185 32.8686 47.8288 31.5019 49.2875 29.8044C50.9176 27.9074 52.13 25.5783 52.9098 23.5092L52.9107 23.5093C54.0741 20.4116 54.9594 16.9364 55.4579 13.3937Z" fill="#CEFB96" stroke="#CEFB96" stroke-width="0.6"/>
<path d="M87.6082 34.7007C87.4082 34.6951 87.2756 34.8291 87.2078 34.9224C87.1331 35.025 87.0761 35.1569 87.032 35.2983C86.9426 35.5854 86.8853 35.9807 86.8777 36.4487C86.8265 39.686 86.523 42.9178 85.3132 45.7163C84.1092 48.5013 82.001 50.8723 78.3044 52.3843C77.9593 52.5256 77.7293 52.823 77.7029 53.1587C77.6755 53.5082 77.8734 53.8349 78.2468 53.9976H78.2478C85.1248 56.9641 87.4962 63.501 87.3738 69.9126L87.3542 70.5327V70.5376C87.3481 70.7805 87.4548 70.9773 87.614 71.1079C87.7658 71.2322 87.9568 71.2913 88.1355 71.2993C88.314 71.3073 88.5103 71.2659 88.6716 71.1528C88.8411 71.0341 88.958 70.8446 88.9656 70.603L89.0212 69.4136C89.168 66.5879 89.4655 63.4422 90.4998 60.6841C91.6756 57.5486 93.7961 54.9323 97.739 53.8638L97.741 53.8628C98.1284 53.754 98.3258 53.408 98.2976 53.0825C98.2834 52.9193 98.212 52.7552 98.075 52.6343C97.9358 52.5115 97.751 52.4524 97.5466 52.4595H97.5457C94.5215 52.5772 92.4244 51.0607 90.9929 48.7944C89.5552 46.5181 88.8036 43.4989 88.5046 40.6821C88.5241 40.1603 88.4718 39.62 88.4167 39.0308C88.36 38.4235 88.2986 37.7475 88.2986 36.938C88.2986 36.247 88.2492 35.7372 88.1667 35.3911C88.126 35.2203 88.0727 35.0711 88.0017 34.9565C87.9362 34.851 87.8105 34.7065 87.6082 34.7007ZM87.6179 45.231C88.643 49.1632 90.838 52.803 94.6082 53.7153C90.7993 55.9307 89.0001 59.4407 88.1375 63.2554C87.0227 59.2665 84.6945 55.6991 80.6228 53.2642C84.0829 51.4778 86.4295 48.5484 87.6179 45.231Z" fill="#FFC5E3" stroke="#FFC5E3" stroke-width="0.6"/>
</svg>
