<svg viewBox="0 0 47 60" fill="none" xmlns="http://www.w3.org/2000/svg">
<path d="M8.88928 0.700195C9.28035 0.695224 9.65563 0.913416 9.85999 1.32031C10.0907 1.77715 10.1461 2.26295 10.1461 2.72461C10.1461 2.95539 10.132 3.18676 10.1178 3.4082C10.1034 3.63267 10.089 3.84601 10.0846 4.05469V4.05859C10.0486 5.12684 10.0213 6.288 9.67834 7.35938L9.67737 7.36133C9.54716 7.75711 9.21255 7.94959 8.87268 7.92676C8.54938 7.90491 8.23916 7.69008 8.11682 7.33887L8.11584 7.33594C7.75235 6.25993 7.75411 5.05267 7.71838 4.00293V4.00195C7.71177 3.79686 7.69533 3.58882 7.6803 3.36914C7.66547 3.15242 7.65198 2.92674 7.65198 2.70117C7.65198 2.25009 7.70635 1.77622 7.93225 1.3291H7.93323C8.13168 0.929837 8.50079 0.705136 8.88928 0.700195Z" fill="#FFC5E3" stroke="#FFC5E3" stroke-width="0.6"/>
<path d="M8.67517 11.6335C8.9186 11.6238 9.17611 11.686 9.38416 11.8416C9.59898 12.0022 9.74309 12.2501 9.76501 12.5642C9.8219 13.3887 9.9473 14.4102 9.99255 15.3718C10.0386 16.3495 10.0089 17.3499 9.74353 18.2253V18.2273C9.59716 18.6992 9.14445 18.9456 8.73474 18.9763C8.31756 19.0076 7.83173 18.8198 7.66833 18.3025C7.38871 17.4181 7.34698 16.4156 7.38611 15.4343C7.42493 14.4613 7.54774 13.4526 7.60974 12.6091L7.62341 12.4929C7.72274 11.9315 8.22762 11.6515 8.67517 11.6335Z" fill="#FFC5E3" stroke="#FFC5E3" stroke-width="0.6"/>
<path d="M3.6593 9.22852C4.47371 9.21925 5.23955 9.23518 6.0675 9.53125H6.06653C6.2564 9.59858 6.39532 9.76167 6.4386 9.94434C6.46116 10.0396 6.45918 10.1499 6.41516 10.2568C6.3701 10.3661 6.28883 10.4532 6.18469 10.5107L6.18372 10.5088C5.34702 11.0131 4.52391 11.2156 3.59778 11.3828L3.5968 11.3818C3.27909 11.4412 2.91316 11.5322 2.57336 11.5322C2.20523 11.5322 1.8413 11.4306 1.50012 11.1133L1.5011 11.1123C1.35571 10.9786 1.26424 10.7933 1.23059 10.6084C1.19671 10.4221 1.21543 10.2043 1.33118 10.0166L1.33411 10.0107H1.33508C1.62311 9.56483 2.02883 9.37132 2.44836 9.29004C2.84638 9.21299 3.29415 9.23282 3.6593 9.22852Z" fill="#FFC5E3" stroke="#FFC5E3" stroke-width="0.6"/>
<path d="M12.1104 8.79565L12.1113 8.79468C12.4262 8.79985 12.728 8.86121 13.0029 8.91968C13.2862 8.97991 13.5404 9.0367 13.8008 9.05347L13.7998 9.05444C14.397 9.0889 15.0103 9.00235 15.6064 8.84253V8.84155C16.429 8.61833 17.0343 9.16031 17.2256 9.75854C17.3219 10.0598 17.326 10.4024 17.1924 10.7068C17.072 10.9806 16.8486 11.2034 16.5273 11.3289L16.3809 11.3777C15.617 11.5796 14.5922 11.6945 13.623 11.575C12.6613 11.4563 11.6963 11.0973 11.1338 10.2917C10.8939 9.95398 10.9222 9.58898 11.0918 9.3103C11.205 9.12449 11.381 8.97659 11.5781 8.88745V8.79468H11.9492C12.0019 8.78898 12.0562 8.78958 12.1104 8.79565Z" fill="#FFC5E3" stroke="#FFC5E3" stroke-width="0.6"/>
<path d="M20.0947 17.7012C20.1793 17.6941 20.2785 17.7109 20.3672 17.7686C20.4386 17.815 20.4947 17.8826 20.5254 17.9648L20.5469 18.0518L20.5479 18.0537C20.7824 19.7664 20.8637 21.5203 20.7725 23.2646C20.8488 27.0216 21.4148 30.3849 22.9121 33.1777C24.406 35.9641 26.8404 38.2072 30.7031 39.7031L30.7061 39.7041C30.9276 39.7925 31.0935 39.9387 31.1934 40.124C31.2916 40.3065 31.3165 40.5084 31.291 40.6963C31.2413 41.0633 30.995 41.4238 30.626 41.5879H30.625C25.1286 44.014 21.501 49.063 21.0059 54.7686C21.1263 55.9549 21.1669 57.163 21.0957 58.3926C21.0352 59.5659 19.3076 59.6288 19.2031 58.4219L19.1641 57.8936C19.1329 57.3703 19.1234 56.8517 19.1309 56.334C18.6374 49.3083 15.3056 43.1758 9.17383 39.1416V39.1406C8.84775 38.9283 8.67821 38.5727 8.70215 38.2246C8.72695 37.8648 8.95743 37.5356 9.36816 37.4033L9.37109 37.4023C13.6617 36.0591 16.0805 33.1889 17.5117 29.6768C18.9493 26.1488 19.3845 21.9869 19.6982 18.0908C19.7181 17.8331 19.9356 17.7146 20.0947 17.7012ZM19.1992 30.6338C17.7879 34.0442 15.3626 36.9111 11.6553 38.5635C15.6992 41.6331 18.6562 45.7542 20.1182 50.4268C21.4622 46.4555 24.1456 43.0625 27.96 40.7344C23.8338 38.6648 20.449 34.9328 19.1992 30.6338Z" fill="#FFC5E3" stroke="#FFC5E3" stroke-width="0.6"/>
<path d="M39.5088 19.5996C39.1756 19.5948 38.9006 19.8086 38.7666 20.1143H38.7676C38.6296 20.427 38.5996 20.7509 38.5996 21.04C38.5996 21.1854 38.6077 21.3302 38.6152 21.4639C38.6229 21.601 38.6306 21.7253 38.6328 21.8467V21.8506C38.6516 22.4886 38.6657 23.2153 38.8545 23.8896V23.8926C38.9441 24.204 39.2065 24.4233 39.5332 24.3984C39.8284 24.3758 40.061 24.159 40.1455 23.8818L40.1465 23.8789C40.2972 23.369 40.3347 22.8143 40.3516 22.3066L40.3652 21.8174C40.3686 21.6976 40.3767 21.576 40.3848 21.4414C40.3926 21.3103 40.4004 21.1688 40.4004 21.0264C40.4004 20.7437 40.3699 20.4281 40.2354 20.1221H40.2363C40.1066 19.8216 39.8382 19.6044 39.5088 19.5996Z" fill="#FFC5E3" stroke="#FFC5E3" stroke-width="0.8"/>
<path d="M39.5215 28.6006C39.3338 28.5916 39.1363 28.6512 38.9805 28.792C38.8611 28.8998 38.7816 29.0405 38.7441 29.1992L38.7207 29.3633V29.3643C38.6938 29.8356 38.6305 30.4645 38.6084 31.0312C38.5856 31.6157 38.5994 32.2307 38.7363 32.7764L38.7373 32.7783C38.8307 33.1421 39.1357 33.3677 39.4541 33.3965C39.6151 33.4111 39.7886 33.3764 39.9395 33.2744C40.055 33.1961 40.1444 33.0875 40.2021 32.959L40.249 32.8242C40.3933 32.273 40.413 31.6567 40.3936 31.0693C40.3744 30.4909 40.3139 29.8774 40.2842 29.3896C40.256 28.9215 39.9064 28.6193 39.5215 28.6006Z" fill="#FFC5E3" stroke="#FFC5E3" stroke-width="0.8"/>
<path d="M43.623 25.6045C43.0915 25.6222 42.555 25.7011 41.9873 25.9766L41.9062 26.0234C41.73 26.1442 41.6395 26.3414 41.6113 26.5029C41.5781 26.6942 41.6122 26.9691 41.8447 27.1533L41.8438 27.1543C42.5946 27.7722 43.3377 28.0168 44.1523 28.2168C44.4013 28.28 44.7598 28.4004 45.0879 28.4004C45.476 28.4003 45.8355 28.2455 46.1475 27.8525L46.1484 27.8535C46.2853 27.6837 46.3604 27.4617 46.3877 27.2578C46.4151 27.0522 46.4009 26.81 46.3027 26.5938L46.3008 26.5879H46.2998C46.0474 26.0564 45.6717 25.7932 45.248 25.6816C44.873 25.583 44.4449 25.6072 44.1543 25.6025L43.623 25.6045Z" fill="#FFC5E3" stroke="#FFC5E3" stroke-width="0.8"/>
<path d="M32.5996 26.5088C32.5948 26.1756 32.8086 25.9006 33.1143 25.7666V25.7676C33.427 25.6296 33.7509 25.5996 34.04 25.5996C34.1854 25.5996 34.3302 25.6077 34.4639 25.6152C34.601 25.6229 34.7253 25.6306 34.8467 25.6328H34.8506C35.4886 25.6516 36.2153 25.6657 36.8896 25.8545H36.8926C37.204 25.9441 37.4233 26.2065 37.3984 26.5332C37.3758 26.8284 37.159 27.061 36.8818 27.1455L36.8789 27.1465C36.369 27.2972 35.8143 27.3347 35.3066 27.3516L34.8174 27.3652C34.6976 27.3686 34.576 27.3767 34.4414 27.3848C34.3103 27.3926 34.1688 27.4004 34.0264 27.4004C33.7437 27.4004 33.4281 27.3699 33.1221 27.2354V27.2363C32.8216 27.1066 32.6044 26.8382 32.5996 26.5088Z" fill="#FFC5E3" stroke="#FFC5E3" stroke-width="0.8"/>
</svg>
