<svg width="85" height="149" viewBox="0 0 85 149" fill="none" xmlns="http://www.w3.org/2000/svg">
<path d="M9.10645 61.0576C8.71537 61.0526 8.3401 61.2708 8.13574 61.6777C7.90505 62.1346 7.84961 62.6204 7.84961 63.082C7.84963 63.3128 7.86372 63.5442 7.87793 63.7656C7.89234 63.9901 7.90675 64.2034 7.91113 64.4121V64.416C7.94718 65.4843 7.97443 66.6454 8.31738 67.7168L8.31836 67.7188C8.44857 68.1145 8.78318 68.307 9.12305 68.2842C9.44634 68.2623 9.75656 68.0475 9.87891 67.6963L9.87988 67.6934C10.2434 66.6173 10.2416 65.4101 10.2773 64.3604V64.3594C10.284 64.1543 10.3004 63.9462 10.3154 63.7266C10.3303 63.5098 10.3437 63.2842 10.3438 63.0586C10.3438 62.6075 10.2894 62.1336 10.0635 61.6865H10.0625C9.86405 61.2873 9.49494 61.0626 9.10645 61.0576Z" fill="#D3FF9D" stroke="#D3FF9D" stroke-width="0.6"/>
<path d="M9.32056 71.9907C9.07713 71.981 8.81962 72.0432 8.61157 72.1987C8.39675 72.3594 8.25264 72.6072 8.23071 72.9214C8.17383 73.7459 8.04842 74.7674 8.00317 75.729C7.95717 76.7067 7.98678 77.7071 8.2522 78.5825V78.5845C8.39857 79.0563 8.85128 79.3027 9.26099 79.3335C9.67816 79.3648 10.164 79.177 10.3274 78.6597C10.607 77.7753 10.6487 76.7727 10.6096 75.7915C10.5708 74.8185 10.448 73.8098 10.386 72.9663L10.3723 72.8501C10.273 72.2887 9.76811 72.0087 9.32056 71.9907Z" fill="#D3FF9D" stroke="#D3FF9D" stroke-width="0.6"/>
<path d="M14.3364 69.5859C13.522 69.5767 12.7562 69.5926 11.9282 69.8887H11.9292C11.7393 69.956 11.6004 70.1191 11.5571 70.3018C11.5346 70.397 11.5365 70.5073 11.5806 70.6143C11.6256 70.7235 11.7069 70.8106 11.811 70.8682L11.812 70.8662C12.6487 71.3705 13.4718 71.573 14.3979 71.7402L14.3989 71.7393C14.7166 71.7987 15.0826 71.8896 15.4224 71.8896C15.7905 71.8896 16.1544 71.788 16.4956 71.4707L16.4946 71.4697C16.64 71.3361 16.7315 71.1507 16.7651 70.9658C16.799 70.7795 16.7803 70.5618 16.6646 70.374L16.6616 70.3682H16.6606C16.3726 69.9223 15.9669 69.7287 15.5474 69.6475C15.1494 69.5704 14.7016 69.5902 14.3364 69.5859Z" fill="#D3FF9D" stroke="#D3FF9D" stroke-width="0.6"/>
<path d="M5.88525 69.1533L5.88428 69.1523C5.56939 69.1575 5.26762 69.2189 4.99268 69.2773C4.7094 69.3376 4.45521 69.3944 4.19482 69.4111L4.1958 69.4121C3.59863 69.4466 2.98531 69.36 2.38916 69.2002V69.1992C1.56664 68.976 0.96133 69.518 0.77002 70.1162C0.673715 70.4175 0.669569 70.7601 0.803223 71.0645C0.923591 71.3383 1.14696 71.5611 1.46826 71.6865L1.61475 71.7354C2.37862 71.9373 3.40344 72.0522 4.37256 71.9326C5.33426 71.8139 6.29936 71.4549 6.86182 70.6494C7.10175 70.3116 7.0734 69.9466 6.90381 69.668C6.7906 69.4822 6.61458 69.3343 6.41748 69.2451V69.1523H6.04639C5.99367 69.1466 5.93946 69.1472 5.88525 69.1533Z" fill="#D3FF9D" stroke="#D3FF9D" stroke-width="0.6"/>
<path d="M77.5419 51.0913C77.3194 50.9605 77.0623 50.9312 76.8268 50.9738C76.3635 51.0576 75.9032 51.4394 75.879 52.0377C75.855 52.596 75.8682 53.1502 75.8881 53.6956C75.9082 54.2443 75.934 54.7807 75.9363 55.3216C75.9363 55.5327 75.9227 55.7544 75.9106 55.9931C75.8986 56.2282 75.8879 56.4769 75.895 56.724C75.9092 57.2162 75.9952 57.7398 76.3187 58.1867L76.5151 58.4568L76.5698 58.4073C76.6392 58.4546 76.7165 58.4932 76.8022 58.5153C77.0308 58.574 77.274 58.5135 77.4729 58.3219L77.4749 58.3201C77.8826 57.9193 78.06 57.4 78.144 56.89C78.2269 56.3869 78.2255 55.8448 78.2433 55.4011L78.2565 54.9431C78.2803 53.8784 78.2387 52.8294 78.0055 51.7571L78.0047 51.7551C77.9366 51.4522 77.7701 51.2255 77.5419 51.0913Z" fill="#FFD9E9" stroke="#FFD9E9" stroke-width="0.6"/>
<path d="M76.4868 41.3096C76.2546 41.1855 75.9907 41.1636 75.7505 41.2148C75.276 41.3161 74.8179 41.7252 74.8237 42.3447V42.3457C74.8412 43.9416 75.0334 45.5888 75.1616 47.1562C75.1732 47.3468 75.2673 47.5109 75.3716 47.627C75.4754 47.7425 75.6168 47.8403 75.771 47.8867L75.77 47.8877C75.7827 47.892 75.7954 47.8961 75.8081 47.9004C75.821 47.9047 75.8343 47.9097 75.8472 47.9141L75.8618 47.9189L75.8774 47.9219C75.9994 47.9493 76.1115 47.9363 76.2017 47.9189C76.2096 47.9183 76.2173 47.916 76.2251 47.915C76.2306 47.9139 76.2364 47.9143 76.2417 47.9131V47.9121C76.4121 47.8871 76.5607 47.802 76.6694 47.7031C76.7872 47.596 76.8885 47.4501 76.9321 47.2881L76.9331 47.2822C77.3463 45.6075 77.4759 43.6725 76.9917 41.9639C76.9064 41.6589 76.7244 41.4365 76.4868 41.3096Z" fill="#FFD9E9" stroke="#FFD9E9" stroke-width="0.6"/>
<path d="M79.7046 48.1167C79.239 48.1431 78.7332 48.253 78.3511 48.6216H78.3501C78.3491 48.6225 78.3482 48.6236 78.3472 48.6245C78.3445 48.6271 78.341 48.6297 78.3384 48.6323H78.3394C78.2606 48.7067 78.2077 48.8045 78.1831 48.8999C78.1581 48.9969 78.1487 49.1463 78.2378 49.2817L78.2417 49.2866C78.5438 49.7267 78.9936 49.943 79.4351 50.0669C79.8636 50.1872 80.3506 50.2342 80.7075 50.2944C80.9054 50.3282 81.1128 50.3753 81.3413 50.4224C81.5655 50.4686 81.8044 50.5147 82.0444 50.5425C82.5205 50.5976 83.0419 50.5863 83.5063 50.3325V50.3315C84.1438 49.9927 84.2826 49.1415 83.6802 48.6558H83.6792C83.281 48.3362 82.7991 48.222 82.3403 48.1792C81.8951 48.1377 81.3993 48.1608 81.0229 48.1528L80.4048 48.1226C80.1753 48.1114 79.9322 48.1038 79.7046 48.1167Z" fill="#FFD9E9" stroke="#FFD9E9" stroke-width="0.6"/>
<path d="M75.1391 50.1209C74.9627 49.7141 74.5452 49.3349 74.0337 49.3458C73.4572 49.2834 72.842 49.3506 72.3372 49.3587C71.9938 49.3611 71.6587 49.3327 71.2957 49.312C71.0288 49.2968 70.7519 49.2864 70.4689 49.3017L70.1841 49.3263L70.0796 49.343C69.5702 49.4507 69.2192 49.8676 69.1102 50.3087C68.9899 50.7956 69.1548 51.3653 69.7452 51.6356C70.4479 51.9583 71.3599 52.1062 72.2506 52.083C73.1405 52.0597 74.0472 51.8643 74.731 51.4624L74.7312 51.4615C74.9923 51.3088 75.1531 51.0864 75.2139 50.8335C75.2728 50.5876 75.2325 50.3365 75.1391 50.1209Z" fill="#FFD9E9" stroke="#FFD9E9" stroke-width="0.6"/>
<path d="M46.6943 130.35C46.4783 130.357 46.2537 130.427 46.0762 130.587C45.8957 130.75 45.7903 130.983 45.7744 131.263L45.7646 131.479C45.7519 131.982 45.8089 132.479 45.875 132.958C45.9517 133.516 46.039 134.042 46.0654 134.574C46.0698 134.669 46.0723 134.765 46.0732 134.862V135.756C46.0814 136.16 46.1174 136.581 46.252 137.007L46.251 137.008C46.3361 137.286 46.5774 137.413 46.7939 137.429C47.0001 137.445 47.2337 137.367 47.3818 137.182V137.183C47.9938 136.428 48.1371 135.386 48.1934 134.5L48.2129 134.129C48.2575 133.17 48.3145 131.949 47.8057 130.978L47.7119 130.83C47.4684 130.506 47.061 130.338 46.6943 130.35Z" fill="#D3FF9D" stroke="#D3FF9D" stroke-width="0.6"/>
<path d="M47.1929 140.798C47.1042 140.79 46.9914 140.805 46.8882 140.877L46.8872 140.876C46.8861 140.877 46.8854 140.878 46.8843 140.879L46.8813 140.88L46.8823 140.881C46.3545 141.247 46.1831 141.827 46.1323 142.373C46.0829 142.905 46.1429 143.518 46.147 143.931V143.932C46.1514 144.236 46.1384 144.558 46.1265 144.897C46.1147 145.233 46.1043 145.584 46.1167 145.932C46.1413 146.622 46.2572 147.337 46.6626 147.94C46.8553 148.229 47.1908 148.32 47.4692 148.297C47.7468 148.274 48.0566 148.132 48.2134 147.845V147.844C48.548 147.237 48.6013 146.551 48.5708 145.896C48.5555 145.567 48.5182 145.235 48.481 144.919C48.4433 144.599 48.4051 144.297 48.3853 144.009V144.008C48.3699 143.79 48.3679 143.541 48.3589 143.256C48.3501 142.978 48.3348 142.676 48.2905 142.384C48.2039 141.811 47.9945 141.189 47.4106 140.869C47.347 140.831 47.2717 140.805 47.1929 140.798Z" fill="#D3FF9D" stroke="#D3FF9D" stroke-width="0.6"/>
<path d="M53.2561 138.44C53.0032 138.264 52.675 138.198 52.3098 138.282L52.3108 138.283C51.7182 138.42 51.1354 138.518 50.5295 138.63L50.5276 138.631C50.1364 138.705 49.6639 138.724 49.2971 139.225L49.2502 139.296C49.2091 139.37 49.1841 139.453 49.1829 139.543C49.1812 139.66 49.221 139.761 49.2708 139.841C49.3641 139.99 49.5169 140.099 49.6448 140.174C49.9012 140.324 50.2147 140.424 50.342 140.452L50.3411 140.453C51.1158 140.639 51.9679 140.638 52.7473 140.503H52.7483C53.1231 140.437 53.4031 140.248 53.5696 139.986C53.7327 139.73 53.7716 139.425 53.7151 139.15C53.6585 138.876 53.5035 138.613 53.2561 138.44Z" fill="#D3FF9D" stroke="#D3FF9D" stroke-width="0.6"/>
<path d="M41.6145 138.903C41.2327 138.865 40.9103 138.975 40.6799 139.188C40.4549 139.396 40.3387 139.682 40.3215 139.965C40.3044 140.248 40.3848 140.546 40.5784 140.781C40.7764 141.021 41.0767 141.175 41.4543 141.19H41.4573C42.1082 141.21 42.7314 141.091 43.3245 140.941L43.3274 140.94C43.5418 140.883 43.828 140.816 44.0745 140.689C44.3332 140.556 44.5779 140.344 44.6858 139.991L44.6848 139.99C44.7458 139.79 44.7039 139.604 44.5911 139.46C44.4909 139.333 44.3494 139.255 44.2307 139.206C43.9934 139.108 43.7173 139.075 43.5774 139.069C42.9204 139.032 42.2807 138.969 41.6145 138.904V138.903Z" fill="#D3FF9D" stroke="#D3FF9D" stroke-width="0.6"/>
<path d="M54.8431 38.888C54.6755 38.8982 54.497 38.953 54.3539 39.0667C54.2042 39.1856 54.0995 39.3669 54.1003 39.5929L54.0993 39.5938C54.1185 47.0121 54.3665 53.9992 52.511 61.203L52.3154 61.9507C51.3133 65.6892 49.9461 69.4675 47.4416 72.5504C45.0994 75.4368 42.0855 76.9554 38.4445 78.374L38.3233 78.3107C37.7403 78.0133 37.1884 78.2746 36.9425 78.6875C36.8208 78.8922 36.7654 79.1464 36.8265 79.398C36.8816 79.6248 37.0254 79.8233 37.2486 79.9653L37.3487 80.0229C44.5446 83.6892 49.6894 89.5569 52.4323 96.3867C55.2807 103.482 54.9974 110.474 54.9985 117.895L55.0006 117.894C54.9998 117.974 55.0264 118.065 55.103 118.135C55.1777 118.203 55.2637 118.218 55.3195 118.218C55.4152 118.219 55.555 118.173 55.6232 118.03L55.635 118.007L55.642 117.981C55.6472 117.963 55.6526 117.943 55.6575 117.925C55.6803 117.895 55.6954 117.86 55.7062 117.822L55.7091 117.823C56.9745 113.476 57.6342 109.03 58.4978 104.68C59.3637 100.318 60.4374 96.0309 62.5303 91.9345C64.295 88.4748 66.7284 85.2894 69.8967 82.7379C73.4853 79.8479 77.2584 78.8667 81.8328 77.4892L81.8329 77.4883C82.2737 77.3587 82.4245 76.9482 82.3629 76.6084C82.3011 76.2689 82.0205 75.9361 81.5679 75.9288L81.5689 75.9288C80.5568 75.9064 79.5461 75.9874 78.564 76.1569C74.4944 75.7597 70.9476 73.7179 68.0087 70.9864C65.2452 68.4179 63.0322 65.2514 61.4438 62.3122L61.1339 61.727C57.6425 54.9764 56.9036 48.2198 56.3028 40.9271C56.2835 40.6229 56.0714 40.4292 55.8547 40.3301C55.8055 40.0517 55.7574 39.761 55.6976 39.4757C55.6026 39.0161 55.1571 38.869 54.8431 38.888ZM55.4926 118.034C55.4845 118.037 55.4716 118.04 55.4855 118.036C55.4864 118.036 55.4906 118.034 55.4977 118.031C55.4957 118.032 55.4939 118.034 55.4926 118.034ZM55.9814 54.1195C57.1672 58.1859 59.0049 62.1339 61.1953 65.6234C62.6056 67.8759 64.7812 70.5542 67.4139 72.786C69.7401 74.758 72.442 76.3942 75.3045 77.065C69.4862 79.2416 64.6096 84.2294 61.8902 88.6796C59.2437 93.0128 57.536 98.0136 56.4915 103.132C54.8721 93.5899 49.1825 84.5257 39.8798 79.1652C42.9119 78.6078 45.4625 76.9357 47.5139 74.8226C49.62 72.6532 51.2123 70.0084 52.2775 67.5901L52.4841 67.1099C54.132 63.1461 55.3525 58.6728 55.9814 54.1195Z" fill="#D3FF9D" stroke="#D3FF9D" stroke-width="0.6"/>
<path d="M31.4121 10.7012C31.3275 10.6941 31.2283 10.7109 31.1396 10.7686C31.0683 10.815 31.0122 10.8826 30.9814 10.9648L30.96 11.0518L30.959 11.0537C30.7244 12.7664 30.6432 14.5203 30.7344 16.2646C30.658 20.0216 30.092 23.3849 28.5947 26.1777C27.1009 28.9641 24.6664 31.2072 20.8037 32.7031L20.8008 32.7041C20.5793 32.7925 20.4133 32.9387 20.3135 33.124C20.2152 33.3065 20.1904 33.5084 20.2158 33.6963C20.2656 34.0633 20.5119 34.4238 20.8809 34.5879H20.8818C26.3782 37.014 30.0059 42.063 30.501 47.7686C30.3805 48.9549 30.3399 50.163 30.4111 51.3926C30.4716 52.5659 32.1992 52.6288 32.3037 51.4219L32.3428 50.8936C32.3739 50.3703 32.3834 49.8517 32.376 49.334C32.8694 42.3083 36.2012 36.1758 42.333 32.1416V32.1406C42.6591 31.9283 42.8286 31.5727 42.8047 31.2246C42.7799 30.8648 42.5494 30.5356 42.1387 30.4033L42.1357 30.4023C37.8451 29.0591 35.4264 26.1889 33.9951 22.6768C32.5575 19.1488 32.1223 14.9869 31.8086 11.0908C31.7887 10.8331 31.5713 10.7146 31.4121 10.7012ZM32.3076 23.6338C33.719 27.0442 36.1442 29.9111 39.8516 31.5635C35.8077 34.6331 32.8506 38.7542 31.3887 43.4268C30.0446 39.4555 27.3612 36.0625 23.5469 33.7344C27.673 31.6648 31.0578 27.9328 32.3076 23.6338Z" fill="#FFD9E9" stroke="#FFD9E9" stroke-width="0.6"/>
<path d="M22.9531 87.7002C22.737 87.6943 22.5848 87.8356 22.4961 87.9541C22.4015 88.0806 22.3257 88.2482 22.2656 88.4355C22.1443 88.8143 22.0653 89.3419 22.0547 89.9727L22.0371 90.7998C21.925 94.932 21.4514 99.037 19.8555 102.626C18.1591 106.441 15.187 109.69 9.98047 111.761C9.53647 111.937 9.24353 112.308 9.20996 112.724C9.1752 113.155 9.42443 113.556 9.90234 113.759L9.90332 113.76C19.5929 117.823 22.9217 126.773 22.75 135.521L22.7227 136.367L22.7217 136.373C22.7139 136.671 22.8481 136.909 23.0449 137.065C23.2338 137.216 23.4737 137.289 23.7012 137.299C23.9284 137.309 24.1744 137.257 24.374 137.121C24.582 136.979 24.729 136.752 24.7383 136.455C24.9232 132.225 25.231 127.231 26.8926 122.923C28.5473 118.633 31.5382 115.037 37.1064 113.57L37.1094 113.569C37.5893 113.438 37.8394 113.02 37.8037 112.62C37.7858 112.42 37.6956 112.223 37.5283 112.079C37.3596 111.935 37.1336 111.862 36.876 111.871H36.875C32.5842 112.034 29.6121 109.938 27.5928 106.83C25.5683 103.714 24.5125 99.5897 24.0928 95.75C24.1219 95.0412 24.0478 94.3061 23.9697 93.4941C23.8903 92.6674 23.8047 91.7445 23.8047 90.6377C23.8047 89.7005 23.7348 89.0159 23.6221 88.5557C23.5662 88.3274 23.4951 88.1354 23.4043 87.9932C23.3182 87.8583 23.1719 87.7062 22.9531 87.7002ZM22.9883 101.521C24.3995 107.103 27.5594 112.288 33.0664 113.43C27.4406 116.504 24.8874 121.514 23.71 126.952C22.1953 121.301 18.8815 116.246 12.9424 112.854C17.9867 110.381 21.3588 106.222 22.9883 101.521Z" fill="#FFD9E9" stroke="#FFD9E9" stroke-width="0.6"/>
<path d="M49.998 0.599609C50.3313 0.594782 50.6063 0.808557 50.7402 1.11426H50.7393C50.8772 1.42701 50.9072 1.75089 50.9072 2.04004C50.9072 2.1854 50.8991 2.33021 50.8916 2.46387C50.8839 2.60098 50.8763 2.72525 50.874 2.84668V2.85059C50.8552 3.48857 50.8412 4.21531 50.6523 4.88965V4.89258C50.5627 5.20397 50.3004 5.42331 49.9736 5.39844C49.6785 5.37578 49.4458 5.15902 49.3613 4.88184L49.3604 4.87891C49.2096 4.36902 49.1721 3.81432 49.1553 3.30664L49.1416 2.81738C49.1382 2.69755 49.1301 2.57597 49.1221 2.44141C49.1142 2.31031 49.1064 2.16875 49.1064 2.02637C49.1065 1.74366 49.1369 1.42809 49.2715 1.12207H49.2705C49.4002 0.821645 49.6686 0.604397 49.998 0.599609Z" fill="#D3FF9D" stroke="#D3FF9D" stroke-width="0.8"/>
<path d="M49.9854 9.60059C50.173 9.59156 50.3705 9.6512 50.5264 9.79199C50.6457 9.89981 50.7252 10.0405 50.7627 10.1992L50.7861 10.3633V10.3643C50.8131 10.8356 50.8763 11.4645 50.8984 12.0312C50.9212 12.6157 50.9075 13.2307 50.7705 13.7764L50.7695 13.7783C50.6761 14.1421 50.3711 14.3677 50.0527 14.3965C49.8917 14.4111 49.7182 14.3764 49.5674 14.2744C49.4518 14.1961 49.3624 14.0875 49.3047 13.959L49.2578 13.8242C49.1135 13.273 49.0939 12.6567 49.1133 12.0693C49.1324 11.4909 49.193 10.8774 49.2227 10.3896C49.2508 9.92148 49.6004 9.61926 49.9854 9.60059Z" fill="#D3FF9D" stroke="#D3FF9D" stroke-width="0.8"/>
<path d="M45.8838 6.60449C46.4153 6.62223 46.9518 6.70106 47.5195 6.97656L47.6006 7.02344C47.7768 7.1442 47.8673 7.34139 47.8955 7.50293C47.9287 7.69416 47.8946 7.96913 47.6621 8.15332L47.6631 8.1543C46.9122 8.77216 46.1691 9.01679 45.3545 9.2168C45.1055 9.27997 44.747 9.40039 44.4189 9.40039C44.0308 9.40033 43.6714 9.24554 43.3594 8.85254L43.3584 8.85352C43.2215 8.68372 43.1464 8.46173 43.1191 8.25781C43.0917 8.05221 43.1059 7.81001 43.2041 7.59375L43.2061 7.58789H43.207C43.4595 7.05638 43.8351 6.79317 44.2588 6.68164C44.6339 6.58296 45.0619 6.60719 45.3525 6.60254L45.8838 6.60449Z" fill="#D3FF9D" stroke="#D3FF9D" stroke-width="0.8"/>
<path d="M56.9072 7.50879C56.9121 7.17555 56.6983 6.90057 56.3926 6.7666V6.76758C56.0798 6.62959 55.7559 6.59963 55.4668 6.59961C55.3214 6.59961 55.1766 6.60773 55.043 6.61523C54.9059 6.62293 54.7816 6.63058 54.6602 6.63281H54.6562C54.0183 6.65165 53.2915 6.66567 52.6172 6.85449H52.6143C52.3029 6.94413 52.0835 7.20648 52.1084 7.5332C52.1311 7.82836 52.3478 8.06102 52.625 8.14551L52.6279 8.14648C53.1378 8.29723 53.6925 8.33471 54.2002 8.35156L54.6895 8.36523C54.8093 8.36861 54.9309 8.37671 55.0654 8.38477C55.1965 8.39262 55.3381 8.40039 55.4805 8.40039C55.7632 8.40038 56.0787 8.36992 56.3848 8.23535V8.23633C56.6852 8.10661 56.9024 7.83819 56.9072 7.50879Z" fill="#D3FF9D" stroke="#D3FF9D" stroke-width="0.8"/>
</svg>
