<svg viewBox="0 0 43 55" fill="none" xmlns="http://www.w3.org/2000/svg">
<path d="M35.7454 36.7002C35.9614 36.7073 36.186 36.7775 36.3635 36.9375C36.544 37.1003 36.6494 37.3329 36.6653 37.6133L36.675 37.8291C36.6878 38.3322 36.6308 38.8287 36.5647 39.3086C36.488 39.8656 36.4007 40.3921 36.3743 40.9238C36.3699 41.0195 36.3674 41.1154 36.3665 41.2119V42.1064C36.3583 42.5105 36.3223 42.9315 36.1877 43.3574L36.1887 43.3584C36.1036 43.6364 35.8623 43.763 35.6458 43.7793C35.4396 43.7946 35.206 43.717 35.0579 43.5322V43.5332C34.4459 42.7781 34.3026 41.7365 34.2463 40.8496L34.2268 40.4795C34.1822 39.5205 34.1251 38.2987 34.634 37.3281L34.7278 37.1797C34.9713 36.856 35.3787 36.6883 35.7454 36.7002Z" fill="#FFC5E3" stroke="#FFC5E3" stroke-width="0.6"/>
<path d="M35.2468 47.1479C35.3355 47.1398 35.4483 47.1549 35.5515 47.2271L35.5525 47.2261C35.5536 47.2268 35.5543 47.2282 35.5554 47.229L35.5583 47.23L35.5574 47.231C36.0852 47.5967 36.2566 48.1769 36.3074 48.7231C36.3568 49.2553 36.2968 49.8681 36.2927 50.2808V50.2817C36.2883 50.5861 36.3013 50.9081 36.3132 51.2476C36.325 51.5832 36.3354 51.9345 36.323 52.2817C36.2984 52.9725 36.1825 53.6867 35.7771 54.2905C35.5844 54.5795 35.2489 54.6702 34.9705 54.647C34.6929 54.6238 34.3831 54.4823 34.2263 54.1948V54.1938C33.8917 53.5873 33.8384 52.9014 33.8689 52.2466C33.8842 51.9171 33.9215 51.5854 33.9587 51.269C33.9964 50.9493 34.0346 50.6471 34.0544 50.3589V50.3579C34.0698 50.1396 34.0718 49.8912 34.0808 49.606C34.0896 49.3282 34.1049 49.0265 34.1492 48.7339C34.2358 48.1616 34.4452 47.5387 35.0291 47.2192C35.0927 47.1814 35.168 47.1552 35.2468 47.1479Z" fill="#FFC5E3" stroke="#FFC5E3" stroke-width="0.6"/>
<path d="M29.1836 44.7903C29.4365 44.6142 29.7647 44.5476 30.1299 44.6321L30.1289 44.6331C30.7215 44.7695 31.3043 44.8681 31.9102 44.9797L31.9121 44.9807C32.3033 45.055 32.7758 45.074 33.1426 45.5745L33.1895 45.6458C33.2306 45.72 33.2556 45.8031 33.2568 45.8928C33.2585 46.0102 33.2187 46.1113 33.1689 46.1907C33.0756 46.3394 32.9228 46.4487 32.7949 46.5237C32.5385 46.6739 32.225 46.7743 32.0977 46.802L32.0986 46.803C31.3239 46.9893 30.4718 46.9876 29.6924 46.8528H29.6914C29.3166 46.7866 29.0366 46.5982 28.8701 46.3362C28.707 46.0794 28.668 45.7753 28.7246 45.5002C28.7812 45.2255 28.9362 44.9626 29.1836 44.7903Z" fill="#FFC5E3" stroke="#FFC5E3" stroke-width="0.6"/>
<path d="M40.8252 45.2529C41.207 45.2154 41.5294 45.3255 41.7598 45.5381C41.9848 45.7459 42.101 46.0324 42.1182 46.3154C42.1353 46.5983 42.0548 46.8963 41.8613 47.1309C41.6633 47.3708 41.363 47.5253 40.9854 47.54H40.9824C40.3315 47.5597 39.7083 47.4412 39.1152 47.291L39.1123 47.29C38.8979 47.2336 38.6117 47.1659 38.3652 47.0391C38.1065 46.9059 37.8618 46.6942 37.7539 46.3408L37.7549 46.3398C37.6939 46.1404 37.7358 45.9546 37.8486 45.8105C37.9488 45.6829 38.0903 45.6046 38.209 45.5557C38.4463 45.4578 38.7224 45.4249 38.8623 45.4189C39.5193 45.3825 40.159 45.3186 40.8252 45.2539V45.2529Z" fill="#FFC5E3" stroke="#FFC5E3" stroke-width="0.6"/>
<path d="M15.0332 0.700195C15.2461 0.694416 15.3958 0.833104 15.4824 0.948242C15.5748 1.07101 15.6479 1.2328 15.7061 1.41309C15.7942 1.68667 15.8593 2.04079 15.8906 2.45605L15.9111 2.8916L15.9277 3.68457C16.0358 7.6478 16.4932 11.5831 18.0312 15.0234C19.6656 18.6793 22.5287 21.7943 27.5469 23.7793C27.9775 23.9498 28.2638 24.308 28.2969 24.7129C28.331 25.1333 28.0862 25.5233 27.6221 25.7188L27.6211 25.7197C18.2832 29.6153 15.0759 38.1939 15.2412 46.5811L15.2676 47.3926V47.3984C15.2751 47.6894 15.1434 47.921 14.9512 48.0732C14.7669 48.2191 14.5333 48.2893 14.3125 48.2988C14.0919 48.3084 13.8528 48.2588 13.6582 48.127C13.454 47.9886 13.3094 47.7646 13.3018 47.4727V47.4717C13.1234 43.4158 12.8262 38.6296 11.2256 34.502C9.63121 30.3904 6.74949 26.9454 1.38379 25.5391L1.38086 25.5381C0.913506 25.4111 0.667854 25.0045 0.703125 24.6133C0.720765 24.4183 0.809056 24.2266 0.972656 24.0869C1.1377 23.9461 1.35805 23.8763 1.6084 23.8848H1.60938C5.74312 24.0404 8.60651 22.0329 10.5518 19.0547C12.5033 16.0667 13.5206 12.1102 13.9248 8.42676C13.8975 7.74806 13.968 7.04425 14.043 6.26855C14.1196 5.47567 14.2021 4.59108 14.2021 3.53027C14.2021 2.63063 14.2698 1.97228 14.3789 1.5293C14.433 1.30981 14.5013 1.12441 14.5898 0.986328C14.6739 0.8554 14.8178 0.706247 15.0332 0.700195ZM15.002 14.0088C13.6389 19.3397 10.6008 24.2901 5.31738 25.3975C10.7095 28.3416 13.1677 33.1244 14.3057 38.3164C15.7706 32.9166 18.9598 28.0856 24.6621 24.8389C19.8197 22.4708 16.5766 18.4993 15.002 14.0088Z" fill="#FFC5E3" stroke="#FFC5E3" stroke-width="0.6"/>
</svg>
