<svg viewBox="0 0 86 149" fill="none" xmlns="http://www.w3.org/2000/svg">
<path d="M76.4001 61.0579C76.7912 61.0529 77.1665 61.2711 77.3708 61.678C77.6015 62.1348 77.657 62.6206 77.657 63.0823C77.657 63.3131 77.6429 63.5444 77.6287 63.7659C77.6143 63.9903 77.5998 64.2037 77.5955 64.4124V64.4163C77.5594 65.4845 77.5322 66.6457 77.1892 67.717L77.1882 67.719C77.058 68.1148 76.7234 68.3073 76.3835 68.2844C76.0602 68.2626 75.75 68.0477 75.6277 67.6965L75.6267 67.6936C75.2632 66.6176 75.265 65.4103 75.2292 64.3606V64.3596C75.2226 64.1545 75.2062 63.9465 75.1912 63.7268C75.1763 63.5101 75.1628 63.2844 75.1628 63.0588C75.1628 62.6078 75.2172 62.1339 75.4431 61.6868H75.4441C75.6425 61.2875 76.0117 61.0628 76.4001 61.0579Z" fill="white" stroke="white" stroke-width="0.6"/>
<path d="M76.186 71.9912C76.4295 71.9815 76.687 72.0437 76.895 72.1992C77.1098 72.3599 77.254 72.6077 77.2759 72.9219C77.3328 73.7463 77.4582 74.7679 77.5034 75.7295C77.5494 76.7071 77.5198 77.7076 77.2544 78.583V78.585C77.108 79.0568 76.6553 79.3032 76.2456 79.334C75.8284 79.3652 75.3426 79.1775 75.1792 78.6602C74.8996 77.7758 74.8578 76.7732 74.897 75.792C74.9358 74.819 75.0586 73.8103 75.1206 72.9668L75.1343 72.8506C75.2336 72.2892 75.7385 72.0092 76.186 71.9912Z" fill="white" stroke="white" stroke-width="0.6"/>
<path d="M71.1702 69.5862C71.9846 69.5769 72.7504 69.5929 73.5784 69.8889H73.5774C73.7673 69.9562 73.9062 70.1193 73.9495 70.302C73.972 70.3973 73.97 70.5075 73.926 70.6145C73.881 70.7237 73.7997 70.8108 73.6956 70.8684L73.6946 70.8665C72.8579 71.3708 72.0348 71.5732 71.1086 71.7405L71.1077 71.7395C70.79 71.7989 70.424 71.8899 70.0842 71.8899C69.7161 71.8899 69.3522 71.7883 69.011 71.4709L69.012 71.47C68.8666 71.3363 68.7751 71.1509 68.7415 70.9661C68.7076 70.7797 68.7263 70.562 68.842 70.3743L68.845 70.3684H68.8459C69.134 69.9225 69.5397 69.729 69.9592 69.6477C70.3572 69.5707 70.805 69.5905 71.1702 69.5862Z" fill="white" stroke="white" stroke-width="0.6"/>
<path d="M79.6212 69.1533L79.6222 69.1523C79.9371 69.1575 80.2389 69.2189 80.5138 69.2773C80.7971 69.3376 81.0513 69.3944 81.3116 69.4111L81.3107 69.4121C81.9078 69.4466 82.5212 69.36 83.1173 69.2002V69.1992C83.9398 68.976 84.5451 69.518 84.7365 70.1162C84.8328 70.4175 84.8369 70.7601 84.7032 71.0645C84.5829 71.3383 84.3595 71.5611 84.0382 71.6865L83.8917 71.7354C83.1278 71.9373 82.103 72.0522 81.1339 71.9326C80.1722 71.8139 79.2071 71.4549 78.6447 70.6494C78.4047 70.3116 78.4331 69.9466 78.6027 69.668C78.7159 69.4822 78.8919 69.3343 79.089 69.2451V69.1523H79.4601C79.5128 69.1466 79.567 69.1472 79.6212 69.1533Z" fill="white" stroke="white" stroke-width="0.6"/>
<path d="M7.96497 51.091C8.18748 50.9602 8.44454 50.9309 8.68001 50.9735C9.14332 51.0574 9.60362 51.4392 9.62787 52.0375C9.65185 52.5957 9.63862 53.15 9.61871 53.6954C9.59867 54.244 9.57286 54.7805 9.57049 55.3213C9.57057 55.5325 9.58416 55.7541 9.59627 55.9929C9.6082 56.2279 9.61897 56.4767 9.61185 56.7237C9.59762 57.216 9.51167 57.7395 9.18817 58.1865L8.99177 58.4566L8.93701 58.4071C8.86762 58.4544 8.79029 58.493 8.70467 58.515C8.47601 58.5738 8.23282 58.5132 8.03396 58.3217L8.0319 58.3198C7.62429 57.919 7.44688 57.3998 7.36283 56.8898C7.27996 56.3867 7.28137 55.8446 7.26357 55.4009L7.25034 54.9428C7.22655 53.8782 7.26816 52.8291 7.5013 51.7569L7.50216 51.7549C7.57026 51.452 7.73675 51.2252 7.96497 51.091Z" fill="white" stroke="white" stroke-width="0.6"/>
<path d="M9.0199 41.3096C9.25207 41.1855 9.51605 41.1636 9.75623 41.2148C10.2307 41.3161 10.6888 41.7252 10.683 42.3447V42.3457C10.6656 43.9416 10.4733 45.5888 10.3451 47.1562C10.3335 47.3468 10.2394 47.5109 10.1351 47.627C10.0313 47.7425 9.88993 47.8403 9.73572 47.8867L9.73669 47.8877C9.72402 47.892 9.71129 47.8961 9.69861 47.9004C9.6857 47.9047 9.67245 47.9097 9.65955 47.9141L9.6449 47.9189L9.62927 47.9219C9.50733 47.9493 9.39523 47.9363 9.30505 47.9189C9.29713 47.9183 9.28945 47.916 9.28162 47.915C9.2761 47.9139 9.27034 47.9143 9.26501 47.9131V47.9121C9.09458 47.8871 8.94602 47.802 8.83728 47.7031C8.71951 47.596 8.61819 47.4501 8.57458 47.2881L8.57361 47.2822C8.16037 45.6075 8.03083 43.6725 8.51501 41.9639C8.6003 41.6589 8.78232 41.4365 9.0199 41.3096Z" fill="white" stroke="white" stroke-width="0.6"/>
<path d="M5.80225 48.1167C6.26781 48.1431 6.77363 48.253 7.15576 48.6216H7.15674C7.15777 48.6225 7.15864 48.6236 7.15967 48.6245C7.16235 48.6271 7.16579 48.6297 7.16846 48.6323H7.16748C7.24623 48.7067 7.29916 48.8045 7.32373 48.8999C7.34869 48.9969 7.35813 49.1463 7.26904 49.2817L7.26514 49.2866C6.96307 49.7267 6.51325 49.943 6.07178 50.0669C5.64322 50.1872 5.15619 50.2342 4.79932 50.2944C4.6014 50.3282 4.39403 50.3753 4.16553 50.4224C3.94133 50.4686 3.70244 50.5147 3.4624 50.5425C2.98633 50.5976 2.46495 50.5863 2.00049 50.3325V50.3315C1.36303 49.9927 1.22428 49.1415 1.82666 48.6558H1.82764C2.22585 48.3362 2.70773 48.222 3.1665 48.1792C3.6117 48.1377 4.10749 48.1608 4.48389 48.1528L5.10205 48.1226C5.33156 48.1114 5.57468 48.1038 5.80225 48.1167Z" fill="white" stroke="white" stroke-width="0.6"/>
<path d="M10.3677 50.1212C10.5441 49.7144 10.9617 49.3352 11.4731 49.3461C12.0496 49.2836 12.6648 49.3508 13.1697 49.359C13.513 49.3614 13.8481 49.3329 14.2112 49.3122C14.4781 49.297 14.7549 49.2867 15.0379 49.302L15.3228 49.3266L15.4272 49.3432C15.9366 49.4509 16.2876 49.8679 16.3966 50.3089C16.5169 50.7959 16.352 51.3656 15.7616 51.6358C15.059 51.9585 14.147 52.1065 13.2563 52.0832C12.3663 52.06 11.4597 51.8646 10.7758 51.4627L10.7756 51.4617C10.5145 51.309 10.3537 51.0866 10.293 50.8338C10.234 50.5879 10.2743 50.3368 10.3677 50.1212Z" fill="white" stroke="white" stroke-width="0.6"/>
<path d="M38.8124 130.35C39.0284 130.357 39.2531 130.427 39.4305 130.587C39.611 130.75 39.7165 130.983 39.7323 131.263L39.7421 131.479C39.7548 131.982 39.6978 132.479 39.6317 132.958C39.555 133.516 39.4677 134.042 39.4413 134.574C39.437 134.669 39.4344 134.765 39.4335 134.862V135.756C39.4253 136.16 39.3893 136.581 39.2548 137.007L39.2557 137.008C39.1706 137.286 38.9293 137.413 38.7128 137.429C38.5066 137.445 38.273 137.367 38.1249 137.182V137.183C37.5129 136.428 37.3696 135.386 37.3134 134.5L37.2938 134.129C37.2492 133.17 37.1922 131.949 37.701 130.978L37.7948 130.83C38.0383 130.506 38.4457 130.338 38.8124 130.35Z" fill="white" stroke="white" stroke-width="0.6"/>
<path d="M38.314 140.798C38.4026 140.79 38.5154 140.805 38.6187 140.877L38.6196 140.876C38.6207 140.877 38.6214 140.878 38.6226 140.879L38.6255 140.88L38.6245 140.881C39.1524 141.247 39.3237 141.827 39.3745 142.373C39.424 142.905 39.364 143.518 39.3599 143.931V143.932C39.3554 144.236 39.3684 144.558 39.3804 144.897C39.3922 145.233 39.4025 145.584 39.3901 145.932C39.3655 146.622 39.2496 147.337 38.8442 147.94C38.6515 148.229 38.3161 148.32 38.0376 148.297C37.76 148.274 37.4503 148.132 37.2935 147.845V147.844C36.9588 147.237 36.9056 146.551 36.936 145.896C36.9514 145.567 36.9886 145.235 37.0259 144.919C37.0635 144.599 37.1017 144.297 37.1216 144.009V144.008C37.137 143.79 37.139 143.541 37.1479 143.256C37.1567 142.978 37.172 142.676 37.2163 142.384C37.3029 141.811 37.5124 141.189 38.0962 140.869C38.1598 140.831 38.2351 140.805 38.314 140.798Z" fill="white" stroke="white" stroke-width="0.6"/>
<path d="M32.2506 138.44C32.5035 138.264 32.8317 138.197 33.1969 138.282L33.1959 138.283C33.7885 138.419 34.3713 138.518 34.9772 138.63L34.9791 138.631C35.3703 138.705 35.8428 138.724 36.2096 139.224L36.2565 139.296C36.2976 139.37 36.3226 139.453 36.3239 139.543C36.3255 139.66 36.2857 139.761 36.236 139.841C36.1426 139.989 35.9898 140.099 35.8619 140.174C35.6055 140.324 35.292 140.424 35.1647 140.452L35.1656 140.453C34.3909 140.639 33.5388 140.637 32.7594 140.503H32.7584C32.3836 140.437 32.1036 140.248 31.9371 139.986C31.7741 139.729 31.7351 139.425 31.7916 139.15C31.8482 138.875 32.0032 138.612 32.2506 138.44Z" fill="white" stroke="white" stroke-width="0.6"/>
<path d="M43.8922 138.903C44.2741 138.865 44.5964 138.975 44.8268 139.188C45.0518 139.396 45.168 139.682 45.1852 139.965C45.2024 140.248 45.1219 140.546 44.9283 140.781C44.7303 141.021 44.43 141.175 44.0524 141.19H44.0494C43.3985 141.21 42.7753 141.091 42.1823 140.941L42.1793 140.94C41.9649 140.883 41.6787 140.816 41.4323 140.689C41.1735 140.556 40.9288 140.344 40.8209 139.991L40.8219 139.99C40.761 139.79 40.8028 139.604 40.9156 139.46C41.0158 139.333 41.1573 139.255 41.276 139.206C41.5133 139.108 41.7894 139.075 41.9293 139.069C42.5863 139.032 43.226 138.969 43.8922 138.904V138.903Z" fill="white" stroke="white" stroke-width="0.6"/>
<path d="M30.6636 38.888C30.8313 38.8982 31.0097 38.953 31.1528 39.0667C31.3025 39.1856 31.4072 39.3669 31.4064 39.5929L31.4074 39.5938C31.3882 47.0121 31.1402 53.9992 32.9958 61.203L33.1914 61.9507C34.1934 65.6892 35.5606 69.4675 38.0651 72.5504C40.4073 75.4368 43.4213 76.9554 47.0623 78.374L47.1834 78.3107C47.7665 78.0133 48.3183 78.2746 48.5642 78.6875C48.6859 78.8922 48.7413 79.1464 48.6802 79.398C48.6251 79.6248 48.4813 79.8233 48.2581 79.9653L48.1581 80.0229C40.9621 83.6892 35.8173 89.5569 33.0745 96.3867C30.226 103.482 30.5093 110.474 30.5082 117.895L30.5061 117.894C30.5069 117.974 30.4804 118.065 30.4037 118.135C30.329 118.203 30.243 118.218 30.1872 118.218C30.0915 118.219 29.9517 118.173 29.8835 118.03L29.8717 118.007L29.8647 117.981C29.8595 117.963 29.8541 117.943 29.8492 117.925C29.8264 117.895 29.8113 117.86 29.8005 117.822L29.7976 117.823C28.5322 113.476 27.8725 109.03 27.0089 104.68C26.143 100.318 25.0693 96.0309 22.9764 91.9345C21.2117 88.4748 18.7783 85.2894 15.6101 82.7379C12.0214 79.8479 8.24834 78.8667 3.67393 77.4892L3.67385 77.4883C3.23301 77.3587 3.08221 76.9482 3.14386 76.6084C3.20557 76.2689 3.4862 75.9361 3.93879 75.9288L3.93782 75.9288C4.94988 75.9064 5.96062 75.9874 6.94272 76.1569C11.0123 75.7597 14.5591 73.7179 17.498 70.9864C20.2615 68.4179 22.4745 65.2514 24.0629 62.3122L24.3728 61.727C27.8642 54.9764 28.6031 48.2198 29.2039 40.9271C29.2232 40.6229 29.4354 40.4292 29.652 40.3301C29.7012 40.0517 29.7493 39.761 29.8091 39.4757C29.9041 39.0161 30.3496 38.869 30.6636 38.888ZM30.0141 118.034C30.0222 118.037 30.0351 118.04 30.0212 118.036C30.0203 118.036 30.0162 118.034 30.009 118.031C30.011 118.032 30.0128 118.034 30.0141 118.034ZM29.5253 54.1195C28.3395 58.1859 26.5018 62.1339 24.3114 65.6234C22.9011 67.8759 20.7255 70.5542 18.0929 72.786C15.7666 74.758 13.0647 76.3942 10.2022 77.065C16.0205 79.2416 20.8972 84.2294 23.6165 88.6796C26.263 93.0128 27.9708 98.0136 29.0152 103.132C30.6347 93.5899 36.3242 84.5257 45.6269 79.1652C42.5948 78.6078 40.0442 76.9357 37.9928 74.8226C35.8867 72.6532 34.2945 70.0084 33.2292 67.5901L33.0226 67.1099C31.3747 63.1461 30.1542 58.6728 29.5253 54.1195Z" fill="white" stroke="white" stroke-width="0.6"/>
<path d="M54.0947 10.7012C54.1793 10.6941 54.2785 10.7109 54.3672 10.7686C54.4386 10.815 54.4947 10.8826 54.5254 10.9648L54.5469 11.0518L54.5479 11.0537C54.7824 12.7664 54.8637 14.5203 54.7725 16.2646C54.8488 20.0216 55.4148 23.3849 56.9121 26.1777C58.406 28.9641 60.8404 31.2072 64.7031 32.7031L64.7061 32.7041C64.9276 32.7925 65.0935 32.9387 65.1934 33.124C65.2916 33.3065 65.3165 33.5084 65.291 33.6963C65.2413 34.0633 64.995 34.4238 64.626 34.5879H64.625C59.1286 37.014 55.501 42.063 55.0059 47.7686C55.1263 48.9549 55.1669 50.163 55.0957 51.3926C55.0352 52.5659 53.3076 52.6288 53.2031 51.4219L53.1641 50.8936C53.1329 50.3703 53.1234 49.8517 53.1309 49.334C52.6374 42.3083 49.3056 36.1758 43.1738 32.1416V32.1406C42.8477 31.9283 42.6782 31.5727 42.7021 31.2246C42.727 30.8648 42.9574 30.5356 43.3682 30.4033L43.3711 30.4023C47.6617 29.0591 50.0805 26.1889 51.5117 22.6768C52.9493 19.1488 53.3845 14.9869 53.6982 11.0908C53.7181 10.8331 53.9356 10.7146 54.0947 10.7012ZM53.1992 23.6338C51.7879 27.0442 49.3626 29.9111 45.6553 31.5635C49.6992 34.6331 52.6562 38.7542 54.1182 43.4268C55.4622 39.4555 58.1456 36.0625 61.96 33.7344C57.8338 31.6648 54.449 27.9328 53.1992 23.6338Z" fill="white" stroke="white" stroke-width="0.6"/>
<path d="M62.5537 87.7002C62.7698 87.6943 62.922 87.8356 63.0107 87.9541C63.1054 88.0806 63.1812 88.2482 63.2412 88.4355C63.3625 88.8143 63.4416 89.3419 63.4521 89.9727L63.4697 90.7998C63.5818 94.932 64.0554 99.037 65.6514 102.626C67.3477 106.441 70.3199 109.69 75.5264 111.761C75.9704 111.937 76.2633 112.308 76.2969 112.724C76.3316 113.155 76.0824 113.556 75.6045 113.759L75.6035 113.76C65.914 117.823 62.5852 126.773 62.7568 135.521L62.7842 136.367L62.7852 136.373C62.7929 136.671 62.6587 136.909 62.4619 137.065C62.273 137.216 62.0331 137.289 61.8057 137.299C61.5784 137.309 61.3324 137.257 61.1328 137.121C60.9248 136.979 60.7779 136.752 60.7686 136.455C60.5837 132.225 60.2758 127.231 58.6143 122.923C56.9595 118.633 53.9686 115.037 48.4004 113.57L48.3975 113.569C47.9175 113.438 47.6674 113.02 47.7031 112.62C47.721 112.42 47.8112 112.223 47.9785 112.079C48.1472 111.935 48.3732 111.862 48.6309 111.871H48.6318C52.9226 112.034 55.8948 109.938 57.9141 106.83C59.9385 103.714 60.9943 99.5897 61.4141 95.75C61.3849 95.0412 61.4591 94.3061 61.5371 93.4941C61.6166 92.6674 61.7021 91.7445 61.7021 90.6377C61.7022 89.7005 61.7721 89.0159 61.8848 88.5557C61.9407 88.3274 62.0117 88.1354 62.1025 87.9932C62.1886 87.8583 62.335 87.7062 62.5537 87.7002ZM62.5186 101.521C61.1073 107.103 57.9474 112.288 52.4404 113.43C58.0662 116.504 60.6195 121.514 61.7969 126.952C63.3115 121.301 66.6253 116.246 72.5645 112.854C67.5201 110.381 64.148 106.222 62.5186 101.521Z" fill="white" stroke="white" stroke-width="0.6"/>
<path d="M35.5088 0.599609C35.1756 0.594782 34.9006 0.808557 34.7666 1.11426H34.7676C34.6296 1.42701 34.5996 1.75089 34.5996 2.04004C34.5996 2.1854 34.6077 2.33021 34.6152 2.46387C34.6229 2.60098 34.6306 2.72525 34.6328 2.84668V2.85059C34.6516 3.48857 34.6657 4.21531 34.8545 4.88965V4.89258C34.9441 5.20397 35.2065 5.42331 35.5332 5.39844C35.8284 5.37578 36.061 5.15902 36.1455 4.88184L36.1465 4.87891C36.2972 4.36902 36.3347 3.81432 36.3516 3.30664L36.3652 2.81738C36.3686 2.69755 36.3767 2.57597 36.3848 2.44141C36.3926 2.31031 36.4004 2.16875 36.4004 2.02637C36.4004 1.74366 36.3699 1.42809 36.2354 1.12207H36.2363C36.1066 0.821645 35.8382 0.604397 35.5088 0.599609Z" fill="white" stroke="white" stroke-width="0.8"/>
<path d="M35.5215 9.60059C35.3338 9.59156 35.1363 9.6512 34.9805 9.79199C34.8611 9.89981 34.7816 10.0405 34.7441 10.1992L34.7207 10.3633V10.3643C34.6938 10.8356 34.6305 11.4645 34.6084 12.0312C34.5856 12.6157 34.5994 13.2307 34.7363 13.7764L34.7373 13.7783C34.8307 14.1421 35.1357 14.3677 35.4541 14.3965C35.6151 14.4111 35.7886 14.3764 35.9395 14.2744C36.055 14.1961 36.1444 14.0875 36.2021 13.959L36.249 13.8242C36.3933 13.273 36.413 12.6567 36.3936 12.0693C36.3744 11.4909 36.3139 10.8774 36.2842 10.3896C36.256 9.92148 35.9064 9.61926 35.5215 9.60059Z" fill="white" stroke="white" stroke-width="0.8"/>
<path d="M39.623 6.60449C39.0915 6.62223 38.555 6.70106 37.9873 6.97656L37.9062 7.02344C37.73 7.1442 37.6395 7.34139 37.6113 7.50293C37.5781 7.69416 37.6122 7.96913 37.8447 8.15332L37.8438 8.1543C38.5946 8.77216 39.3377 9.01679 40.1523 9.2168C40.4013 9.27997 40.7598 9.40039 41.0879 9.40039C41.476 9.40033 41.8355 9.24554 42.1475 8.85254L42.1484 8.85352C42.2853 8.68372 42.3604 8.46173 42.3877 8.25781C42.4151 8.05221 42.4009 7.81001 42.3027 7.59375L42.3008 7.58789H42.2998C42.0474 7.05638 41.6717 6.79317 41.248 6.68164C40.873 6.58296 40.4449 6.60719 40.1543 6.60254L39.623 6.60449Z" fill="white" stroke="white" stroke-width="0.8"/>
<path d="M28.5996 7.50879C28.5948 7.17555 28.8086 6.90057 29.1143 6.7666V6.76758C29.427 6.62959 29.7509 6.59963 30.04 6.59961C30.1854 6.59961 30.3302 6.60773 30.4639 6.61523C30.601 6.62293 30.7253 6.63058 30.8467 6.63281H30.8506C31.4886 6.65165 32.2153 6.66567 32.8896 6.85449H32.8926C33.204 6.94413 33.4233 7.20648 33.3984 7.5332C33.3758 7.82836 33.159 8.06102 32.8818 8.14551L32.8789 8.14648C32.369 8.29723 31.8143 8.33471 31.3066 8.35156L30.8174 8.36523C30.6976 8.36861 30.576 8.37671 30.4414 8.38477C30.3103 8.39262 30.1688 8.40039 30.0264 8.40039C29.7437 8.40038 29.4281 8.36992 29.1221 8.23535V8.23633C28.8216 8.10661 28.6044 7.83819 28.5996 7.50879Z" fill="white" stroke="white" stroke-width="0.8"/>
</svg>
